<?xml version="1.0" encoding="UTF-8"?>
<svg version="1.1" xmlns="http://www.w3.org/2000/svg" width="512" height="512">
<path d="M0 0 C6.59360729 4.48876969 11.04666443 10.22708469 13.61328125 17.8125 C14.17479037 20.98871319 14.21112187 24.08885536 14.25 27.3125 C14.27578125 28.58738281 14.3015625 29.86226562 14.328125 31.17578125 C14 35 14 35 11 42 C48.62 42.33 86.24 42.66 125 43 C125 59.5 125 76 125 93 C175.16 92.67 225.32 92.34 277 92 C276.34 90.02 275.68 88.04 275 86 C273.95604564 77.34067329 274.75153473 70.11512497 280 63 C286.61785853 55.87951931 292.39689818 52.69999825 302.0859375 51.96875 C309.97258291 52.05332529 316.87247187 55.1158642 322.58984375 60.49609375 C327.95076571 66.17159304 330.08949605 72.30630939 330.375 80.0625 C330.18061395 86.02367222 328.43150063 90.75049901 325.25 95.75 C323.68076244 98.57462761 324.21535646 98.96791157 325 102 C325.11536702 104.26078851 325.17640836 106.52454044 325.20532227 108.78808594 C325.21522186 109.46166641 325.22512146 110.13524689 325.23532104 110.82923889 C325.26681658 113.04758229 325.29164597 115.26594707 325.31640625 117.484375 C325.33698611 119.02566066 325.35798285 120.5669408 325.37937927 122.10821533 C325.4344934 126.15891038 325.48394954 130.20965547 325.53222656 134.26043701 C325.59136672 139.12388057 325.65753589 143.98723297 325.72252655 148.8506012 C325.82040193 156.23367831 325.90934961 163.61681471 326 171 C334.58 162.42 343.16 153.84 352 145 C347.38 144.67 342.76 144.34 338 144 C338 140.04 338 136.08 338 132 C349.88 132 361.76 132 374 132 C374 143.88 374 155.76 374 168 C370.04 168 366.08 168 362 168 C361.67 163.38 361.34 158.76 361 154 C346.4624199 161.86018181 331.95885592 173.03038806 326 189 C322.11106585 203.01274888 322.50856075 218.25579915 322.50390625 232.67578125 C322.50325904 233.68295496 322.50261184 234.69012866 322.50194502 235.72782278 C322.52126323 248.35157039 322.83846481 260.96139513 323.25985372 273.57737243 C323.68795926 286.58437196 323.86040953 299.59450175 324.04269016 312.60684049 C324.08679471 315.74117668 324.13178986 318.87549786 324.17747498 322.0098114 C324.19947784 323.53343262 324.19947784 323.53343262 324.2219252 325.08783406 C324.31434319 331.09981428 324.44905407 337.10899912 324.62410939 343.11913455 C324.73184266 346.83831085 324.82560138 350.55778424 324.91856384 354.27735519 C324.96591729 355.99891139 325.02059399 357.72028422 325.08315849 359.44135475 C325.16832793 361.79102477 325.22854368 364.14013469 325.28346252 366.49067688 C325.34611974 368.46057319 325.34611974 368.46057319 325.41004276 370.47026539 C324.92136576 374.67690016 323.65958241 376.74485231 321 380 C316.74903676 382.83397549 313.0192377 383.12569798 307.99491882 383.12025452 C306.52054604 383.12231651 306.52054604 383.12231651 305.01638794 383.12442017 C303.94967865 383.12082489 302.88296936 383.11722961 301.78393555 383.11352539 C300.65179123 383.11367142 299.51964691 383.11381744 298.35319519 383.1139679 C294.61435016 383.11327172 290.87555507 383.10549306 287.13671875 383.09765625 C284.54311653 383.09579102 281.94951395 383.09436761 279.35591125 383.09336853 C273.22910598 383.08994164 267.10232129 383.08206162 260.97552377 383.07201904 C253.99851766 383.06083173 247.02151069 383.05534086 240.04449785 383.05032361 C225.69632072 383.0398783 211.34816466 383.02154329 197 383 C197 398.51 197 414.02 197 430 C205.58 430 214.16 430 223 430 C223 433.63 223 437.26 223 441 C170.53 441 118.06 441 64 441 C64 437.37 64 433.74 64 430 C72.25 430 80.5 430 89 430 C89 414.49 89 398.98 89 383 C85.52267334 383.01571045 82.04534668 383.0314209 78.46264648 383.04760742 C66.97150179 383.09732443 55.48034216 383.13061039 43.98911953 383.15543652 C37.0222315 383.17088895 30.05544555 383.19194723 23.08862305 383.22631836 C16.36481892 383.25947467 9.64114274 383.27685539 2.91725349 383.28463173 C0.35243117 383.29017328 -2.21238538 383.30099453 -4.77716255 383.31719017 C-8.37053069 383.33897786 -11.96346116 383.34196628 -15.55688477 383.34057617 C-17.14616287 383.35675491 -17.14616287 383.35675491 -18.76754761 383.3732605 C-24.63121 383.3487271 -28.84151661 382.86842407 -34 380 C-39.23264572 374.62965308 -39.15345551 369.76115368 -39.20532227 362.55957031 C-39.21522186 361.71042557 -39.22512146 360.86128082 -39.23532104 359.98640442 C-39.26687247 357.18367284 -39.29166835 354.38092432 -39.31640625 351.578125 C-39.33698126 349.63327599 -39.35797788 347.6884314 -39.37937927 345.74359131 C-39.43454338 340.62757955 -39.48397763 335.51152781 -39.53222656 330.39544678 C-39.5913207 324.25549451 -39.65751753 318.11561521 -39.72252655 311.97572327 C-39.82046485 302.65052679 -39.90936966 293.32528327 -40 284 C-52.21 296.21 -64.42 308.42 -77 321 C-84 315 -84 315 -85 311 C-83.41860962 309.38931274 -83.41860962 309.38931274 -80.99853516 307.77978516 C-63.63210786 295.66253799 -42.22951417 280.37093534 -38.16993713 258.22160339 C-36.33610044 245.61618481 -36.34136873 232.89423566 -36.6875 220.1875 C-36.71412971 219.19738167 -36.74075943 218.20726334 -36.76819611 217.18714142 C-37.13695075 204.76116502 -37.89296799 192.38119341 -39 180 C-43.5109116 181.09541832 -46.63585089 182.00537359 -49.89990234 185.34814453 C-50.5768515 186.02869904 -51.25380066 186.70925354 -51.95126343 187.41043091 C-53.00792709 188.5105098 -53.00792709 188.5105098 -54.0859375 189.6328125 C-54.82832672 190.38464813 -55.57071594 191.13648376 -56.33560181 191.91110229 C-58.69418927 194.30417612 -61.03497328 196.71378644 -63.375 199.125 C-65.73987701 201.53975476 -68.1082429 203.95101321 -70.47866821 206.36032104 C-71.95059612 207.8587709 -73.41861238 209.36107464 -74.88241577 210.86746216 C-75.54045197 211.54171234 -76.19848816 212.21596252 -76.87646484 212.91064453 C-77.45713715 213.50861847 -78.03780945 214.10659241 -78.63607788 214.72268677 C-80 216 -80 216 -81 216 C-81 204.12 -81 192.24 -81 180 C-89.91 180 -98.82 180 -108 180 C-108 134.79 -108 89.58 -108 43 C-87.21 43 -66.42 43 -45 43 C-45.99 40.36 -46.98 37.72 -48 35 C-50.20797983 25.90134486 -48.34769242 17.04294872 -43.53515625 9.1015625 C-33.47131446 -4.67540158 -14.85463491 -8.73194191 0 0 Z M-30.875 12.6875 C-35.07136135 16.65940481 -36.88440417 20.75326482 -37.08984375 26.5234375 C-36.76635646 32.0476051 -35.60652421 35.65095611 -32 40 C-31.57114502 40.5367334 -31.14229004 41.0734668 -30.70043945 41.62646484 C-27.08557342 44.54638391 -21.63130506 43.59878286 -17.1875 43.625 C-16.10662109 43.67011719 -15.02574219 43.71523437 -13.91210938 43.76171875 C-8.10460603 43.88974191 -8.10460603 43.88974191 -2.95581055 41.56884766 C1.19407574 36.94924553 2.8675509 32.18726531 3 26 C2.02787561 19.82998598 -0.57448513 15.32259591 -5 11 C-13.9138584 5.38039362 -22.71487195 6.38664163 -30.875 12.6875 Z M125 118 C125 138.46 125 158.92 125 180 C79.13 180 33.26 180 -14 180 C-14 199.8 -14 219.6 -14 240 C-8.10578217 234.95586645 -8.10578217 234.95586645 -2.5625 229.625 C-1.88316406 228.93664062 -1.20382813 228.24828125 -0.50390625 227.5390625 C0.24052734 226.77722656 0.24052734 226.77722656 1 226 C4.22745524 227.41901662 6.37258107 229.12855765 8.85058594 231.62353516 C9.59105164 232.36415192 10.33151733 233.10476868 11.09442139 233.86782837 C12.27744843 235.06633926 12.27744843 235.06633926 13.484375 236.2890625 C14.29996887 237.10748627 15.11556274 237.92591003 15.95587158 238.76913452 C18.55864562 241.38309973 21.15437762 244.00393505 23.75 246.625 C25.5138634 248.39889454 27.2781809 250.17233766 29.04296875 251.9453125 C33.36726136 256.29165142 37.6857933 260.64365081 42 265 C47.39190397 260.5021065 52.39391684 255.73873458 57.33984375 250.7578125 C58.49027916 249.60525467 58.49027916 249.60525467 59.66395569 248.42941284 C62.0908474 245.99696491 64.51422127 243.56104678 66.9375 241.125 C68.59156486 239.46591448 70.24585945 237.80705798 71.90039062 236.1484375 C75.93625433 232.10160291 79.96924277 228.05192047 84 224 C87.68458983 227.11772677 91.34675126 230.21672032 94.74609375 233.6484375 C95.6597168 234.56689453 95.6597168 234.56689453 96.59179688 235.50390625 C97.50541992 236.43009766 97.50541992 236.43009766 98.4375 237.375 C99.07365234 238.01566406 99.70980469 238.65632813 100.36523438 239.31640625 C101.91250473 240.87531022 103.45690292 242.43696852 105 244 C111.61072987 238.5664118 117.59214196 232.53553957 123.62109375 226.4765625 C124.73188169 225.36390615 125.8428931 224.25147284 126.95411682 223.13925171 C129.85788934 220.2316873 132.75864436 217.32113095 135.65875244 214.40991211 C138.62678263 211.43159571 141.59769662 208.45615894 144.56835938 205.48046875 C150.38171083 199.65643877 156.19187334 193.8292405 162 188 C166.1769213 191.51240575 170.20905116 195.0862345 174.05859375 198.9609375 C175.37827148 200.28544922 175.37827148 200.28544922 176.72460938 201.63671875 C177.61986328 202.54035156 178.51511719 203.44398438 179.4375 204.375 C180.35982422 205.30183594 181.28214844 206.22867188 182.23242188 207.18359375 C184.49058625 209.45345846 186.74636942 211.72563538 189 214 C192.86328627 212.4152642 195.28876923 209.94043113 198.203125 206.9921875 C198.6857782 206.50670441 199.1684314 206.02122131 199.66571045 205.52102661 C201.19858562 203.97700134 202.72434004 202.42615176 204.25 200.875 C205.29120361 199.82375991 206.33286541 198.77297343 207.375 197.72265625 C209.92199464 195.15366996 212.46265177 192.57851839 215 190 C218.85027991 191.78200687 221.2799142 194.07675405 224.25 197.125 C225.14203125 198.03507812 226.0340625 198.94515625 226.953125 199.8828125 C227.96632813 200.93082031 227.96632813 200.93082031 229 202 C234.4569393 198.11307396 239.43006325 193.86292624 244.375 189.34765625 C247.85020343 186.23962461 251.45907157 183.31592795 255.08203125 180.3828125 C258.25417563 177.79244025 261.38038741 175.15311987 264.5 172.5 C271.90191458 166.21150203 279.40892859 160.05930164 287 154 C290.67862004 155.53205686 292.94486742 157.76903549 295.6875 160.625 C297.10846233 162.09945191 298.54173005 163.5624357 300 165 C300.33 165 300.66 165 301 165 C301 149.49 301 133.98 301 118 C242.92 118 184.84 118 125 118 Z M281.0625 173.4375 C276.47812182 177.70068452 271.75468097 181.71737306 266.8828125 185.65234375 C263.71983578 188.22815542 260.6069265 190.85716922 257.5 193.5 C252.59012642 197.6698116 247.65020601 201.79751254 242.640625 205.84765625 C240.81931409 207.33218629 239.01820829 208.84173386 237.234375 210.37109375 C235.91179687 211.48677734 235.91179687 211.48677734 234.5625 212.625 C233.78003906 213.29789063 232.99757813 213.97078125 232.19140625 214.6640625 C230 216 230 216 228.01171875 215.99609375 C225.20669749 214.60719973 223.40949576 212.69226763 221.25 210.4375 C220.45078125 209.61121094 219.6515625 208.78492188 218.828125 207.93359375 C218.22484375 207.29550781 217.6215625 206.65742188 217 206 C213.13671373 207.5847358 210.71123077 210.05956887 207.796875 213.0078125 C207.0728952 213.73603714 207.0728952 213.73603714 206.33428955 214.47897339 C204.80141438 216.02299866 203.27565996 217.57384824 201.75 219.125 C200.70879639 220.17624009 199.66713459 221.22702657 198.625 222.27734375 C196.07800536 224.84633004 193.53734823 227.42148161 191 230 C186.99482604 228.39626852 184.3228902 225.57886014 181.359375 222.5546875 C180.83232971 222.02481232 180.30528442 221.49493713 179.76226807 220.94900513 C178.08674325 219.26232175 176.41832278 217.56880436 174.75 215.875 C173.61244149 214.72740612 172.47442564 213.58026539 171.3359375 212.43359375 C168.55196535 209.62761863 165.7743424 206.81549536 163 204 C157.05143548 208.87446765 151.68301177 214.25124012 146.30755043 219.73954582 C144.15870819 221.93087655 142.00015885 224.11254106 139.84221935 226.29490757 C135.8374195 230.34529021 131.83682337 234.3996355 127.85229492 238.4699707 C125.06689836 241.31460292 122.26957349 244.14700297 119.46385765 246.97159004 C118.39916474 248.04804178 117.33902705 249.12901864 116.28356361 250.21452141 C114.81400198 251.72489909 113.32975995 253.21920644 111.84106445 254.71069336 C111.0005806 255.56529648 110.16009674 256.4198996 109.29414368 257.30039978 C107 259 107 259 104.8290863 258.87844849 C102.27678083 257.65266221 100.65078098 255.98615486 98.671875 253.96484375 C97.87265625 253.15595703 97.0734375 252.34707031 96.25 251.51367188 C95.425 250.66353516 94.6 249.81339844 93.75 248.9375 C92.90953125 248.08349609 92.0690625 247.22949219 91.203125 246.34960938 C89.12852403 244.23964588 87.06124168 242.12300292 85 240 C79.60809603 244.4978935 74.60608316 249.26126542 69.66015625 254.2421875 C68.89319931 255.01055939 68.12624237 255.77893127 67.33604431 256.57058716 C64.9091526 259.00303509 62.48577873 261.43895322 60.0625 263.875 C58.40843514 265.53408552 56.75414055 267.19294202 55.09960938 268.8515625 C51.06374567 272.89839709 47.03075723 276.94807953 43 281 C37.77051256 276.62970634 32.89710045 272.03088196 28.09765625 267.1953125 C27.3750914 266.4713327 26.65252655 265.74735291 25.9080658 265.00143433 C23.62383078 262.71164735 21.34311688 260.41839007 19.0625 258.125 C17.50478961 256.56226839 15.94684913 254.9997661 14.38867188 253.4375 C10.58978398 249.6276469 6.79377287 245.81494621 3 242 C-4.09431133 245.44721418 -10.40163361 249.79363045 -14 257 C-16.17056324 266.54215721 -15.22250969 276.61449151 -14.8125 286.3125 C-14.73976416 288.99910391 -14.68701234 291.68597643 -14.63476562 294.37304688 C-14.49235002 300.9187259 -14.27557878 307.45864513 -14 314 C-9.24914133 310.03627475 -4.76386888 305.90205218 -0.41015625 301.5078125 C0.47392662 300.62160721 0.47392662 300.62160721 1.37586975 299.71749878 C3.23213727 297.85569596 5.08487085 295.99042255 6.9375 294.125 C8.20614672 292.85132989 9.4750249 291.57789029 10.74414062 290.3046875 C13.83210554 287.20577957 16.91690929 284.10375699 20 281 C24.10108886 282.62156024 26.83148167 285.5767703 29.859375 288.6640625 C30.40861633 289.21613373 30.95785767 289.76820496 31.52374268 290.33700562 C33.27059293 292.09501815 35.01034601 293.8598689 36.75 295.625 C37.93573591 296.8207708 39.1219288 298.01608865 40.30859375 299.2109375 C43.21105085 302.13540253 46.1071641 305.06601874 49 308 C53.19625909 306.36221955 55.98676785 303.26676818 59.078125 300.1171875 C59.64956238 299.54292023 60.22099976 298.96865295 60.80975342 298.37698364 C62.62792945 296.5476419 64.43901492 294.71145807 66.25 292.875 C67.48391329 291.63105226 68.71828322 290.3875573 69.953125 289.14453125 C72.97406743 286.10157633 75.98867092 283.05246746 79 280 C83.00374431 281.83692389 85.71957934 284.49117916 88.75 287.625 C89.25660156 288.140625 89.76320313 288.65625 90.28515625 289.1875 C91.52803902 290.45383339 92.76465276 291.7263144 94 293 C99.22948744 288.62970634 104.10289955 284.03088196 108.90234375 279.1953125 C109.6249086 278.4713327 110.34747345 277.74735291 111.0919342 277.00143433 C113.37616922 274.71164735 115.65688312 272.41839007 117.9375 270.125 C119.49521039 268.56226839 121.05315087 266.9997661 122.61132812 265.4375 C126.41021602 261.6276469 130.20622713 257.81494621 134 254 C137.22314687 255.53287586 139.37735598 257.14150688 141.890625 259.6953125 C142.59960938 260.41074219 143.30859375 261.12617188 144.0390625 261.86328125 C145.13347656 262.98283203 145.13347656 262.98283203 146.25 264.125 C146.99507812 264.87910156 147.74015625 265.63320313 148.5078125 266.41015625 C150.3431342 268.26900772 152.1736191 270.13237005 154 272 C158.51572304 268.22369848 162.81275974 264.32390572 166.9375 260.125 C167.43056641 259.62742187 167.92363281 259.12984375 168.43164062 258.6171875 C169.62345992 257.41379715 170.81208678 256.20724635 172 255 C174.99220268 256.36370299 177.29026529 257.94908083 179.75 260.125 C180.36359375 260.66382813 180.9771875 261.20265625 181.609375 261.7578125 C182.06828125 262.16773438 182.5271875 262.57765625 183 263 C183.59425781 262.45472656 184.18851563 261.90945313 184.80078125 261.34765625 C190.09711452 256.52906377 195.49880869 251.89989936 201.06640625 247.3984375 C204.86911749 244.28942991 208.60382339 241.10310698 212.3215332 237.89306641 C216.09821126 234.66379382 219.91762644 231.91598112 224 229 C230.27 235.27 236.54 241.54 243 248 C258.18478771 240.40760615 267.99537126 225.00462874 280 213 C280.33 246.99 280.66 280.98 281 316 C287.6 316 294.2 316 301 316 C301.30176091 298.75341392 301.53333986 281.50789204 301.67355824 264.25926685 C301.74041413 256.24915662 301.83144609 248.24072294 301.98071289 240.23168945 C302.11085131 233.24563643 302.19428593 226.26079798 302.22315043 219.27356642 C302.24000968 215.57776134 302.27921189 211.88542859 302.37449074 208.1907444 C303.51980387 190.56963463 303.51980387 190.56963463 296.35772991 175.28184795 C290.26002457 169.5840799 287.59356345 167.2812465 281.0625 173.4375 Z M-27 351 C-27 357.27 -27 363.54 -27 370 C-25.96415613 371.25848164 -25.96415613 371.25848164 -23.70212358 371.1241985 C-22.67270177 371.12381878 -21.64327995 371.12343906 -20.58266354 371.12304783 C-19.39980139 371.12503888 -18.21693924 371.12702993 -16.99823278 371.12908131 C-15.68211415 371.12616847 -14.36599552 371.12325563 -13.00999451 371.12025452 C-11.61082393 371.1206901 -10.21165343 371.12156476 -8.81248337 371.12284368 C-4.94959888 371.12509127 -1.08674185 371.12106378 2.77613914 371.11606562 C6.93498797 371.11176506 11.09383512 371.11320726 15.25268555 371.1139679 C22.46417676 371.11449338 29.67565896 371.11134401 36.8871479 371.10573006 C47.31387389 371.09761839 57.7405955 371.09500018 68.1673243 371.09374207 C85.08217375 371.09155102 101.99701839 371.08488951 118.91186523 371.07543945 C135.34741186 371.06626669 151.78295719 371.05918519 168.21850586 371.05493164 C169.23083464 371.05466892 170.24316341 371.05440619 171.28616882 371.05413551 C176.36449833 371.05283051 181.44282786 371.0515668 186.52115738 371.05032361 C228.68077494 371.03994936 270.84038719 371.02232962 313 371 C315.98514842 365.02970315 314 357.6749948 314 351 C201.47 351 88.94 351 -27 351 Z " fill="#BC452A" transform="translate(123,71)"/>
<path d="M0 0 C6.59360729 4.48876969 11.04666443 10.22708469 13.61328125 17.8125 C14.17479037 20.98871319 14.21112187 24.08885536 14.25 27.3125 C14.27578125 28.58738281 14.3015625 29.86226562 14.328125 31.17578125 C14 35 14 35 11 42 C48.62 42.33 86.24 42.66 125 43 C125 59.5 125 76 125 93 C175.16 92.67 225.32 92.34 277 92 C276.34 90.02 275.68 88.04 275 86 C273.95604564 77.34067329 274.75153473 70.11512497 280 63 C286.61785853 55.87951931 292.39689818 52.69999825 302.0859375 51.96875 C309.97258291 52.05332529 316.87247187 55.1158642 322.58984375 60.49609375 C327.95076571 66.17159304 330.08949605 72.30630939 330.375 80.0625 C330.18061395 86.02367222 328.43150063 90.75049901 325.25 95.75 C323.68034673 98.57537589 324.21331311 98.96658167 325 102 C325.12708006 104.27944359 325.19976356 106.56210642 325.24047852 108.84472656 C325.25347488 109.52496384 325.26647125 110.20520111 325.27986145 110.90605164 C325.40637915 118.00228549 325.46327156 125.09967019 325.51489258 132.19677734 C325.54163768 135.55909939 325.59037412 138.92000376 325.65844727 142.28173828 C325.74063704 146.35195171 325.78311081 150.42081551 325.79795647 154.49181366 C325.81016049 156.03721886 325.83609284 157.58258255 325.87640572 159.12751007 C326.17616857 171.22037488 326.17616857 171.22037488 323.1635437 175.77868652 C321.20598536 177.75170204 319.28830303 179.42936407 317 181 C313 179 313 179 301 167 C301 150.83 301 134.66 301 118 C242.92 118 184.84 118 125 118 C125 138.46 125 158.92 125 180 C79.13 180 33.26 180 -14 180 C-14 200.46 -14 220.92 -14 242 C-28.14842016 260.81517655 -28.14842016 260.81517655 -38 266 C-38.33 266 -38.66 266 -39 266 C-39 237.62 -39 209.24 -39 180 C-45.50701019 181.6250268 -45.50701019 181.6250268 -49.89990234 185.34814453 C-50.5768515 186.02869904 -51.25380066 186.70925354 -51.95126343 187.41043091 C-53.00792709 188.5105098 -53.00792709 188.5105098 -54.0859375 189.6328125 C-54.82832672 190.38464813 -55.57071594 191.13648376 -56.33560181 191.91110229 C-58.69418927 194.30417612 -61.03497328 196.71378644 -63.375 199.125 C-65.73987701 201.53975476 -68.1082429 203.95101321 -70.47866821 206.36032104 C-71.95059612 207.8587709 -73.41861238 209.36107464 -74.88241577 210.86746216 C-75.54045197 211.54171234 -76.19848816 212.21596252 -76.87646484 212.91064453 C-77.45713715 213.50861847 -78.03780945 214.10659241 -78.63607788 214.72268677 C-80 216 -80 216 -81 216 C-81 204.12 -81 192.24 -81 180 C-89.91 180 -98.82 180 -108 180 C-108 134.79 -108 89.58 -108 43 C-87.21 43 -66.42 43 -45 43 C-45.99 40.36 -46.98 37.72 -48 35 C-50.20797983 25.90134486 -48.34769242 17.04294872 -43.53515625 9.1015625 C-33.47131446 -4.67540158 -14.85463491 -8.73194191 0 0 Z M-30.875 12.6875 C-35.07136135 16.65940481 -36.88440417 20.75326482 -37.08984375 26.5234375 C-36.76635646 32.0476051 -35.60652421 35.65095611 -32 40 C-31.57114502 40.5367334 -31.14229004 41.0734668 -30.70043945 41.62646484 C-27.08557342 44.54638391 -21.63130506 43.59878286 -17.1875 43.625 C-16.10662109 43.67011719 -15.02574219 43.71523437 -13.91210938 43.76171875 C-8.10460603 43.88974191 -8.10460603 43.88974191 -2.95581055 41.56884766 C1.19407574 36.94924553 2.8675509 32.18726531 3 26 C2.02787561 19.82998598 -0.57448513 15.32259591 -5 11 C-13.9138584 5.38039362 -22.71487195 6.38664163 -30.875 12.6875 Z " fill="#63D0DA" transform="translate(123,71)"/>
<path d="M0 0 C0.01676662 1.17389219 0.03353325 2.34778439 0.05080795 3.55724907 C0.07323106 5.11375821 0.09566323 6.67026722 0.11810303 8.22677612 C0.12910223 8.99855037 0.14010143 9.77032461 0.15143394 10.56548595 C0.20895587 14.54285972 0.27603234 18.51966791 0.36035156 22.49658203 C0.37204468 23.9169799 0.38223503 25.33739128 0.390625 26.7578125 C0.41108887 27.48282959 0.43155273 28.20784668 0.45263672 28.95483398 C0.45616345 34.1338376 -0.70967234 37.03006741 -4 41 C-8.25096324 43.83397549 -11.9807623 44.12569798 -17.00508118 44.12025452 C-18.47945396 44.12231651 -18.47945396 44.12231651 -19.98361206 44.12442017 C-21.05032135 44.12082489 -22.11703064 44.11722961 -23.21606445 44.11352539 C-24.34820877 44.11367142 -25.48035309 44.11381744 -26.64680481 44.1139679 C-30.38564984 44.11327172 -34.12444493 44.10549306 -37.86328125 44.09765625 C-40.45688347 44.09579102 -43.05048605 44.09436761 -45.64408875 44.09336853 C-51.77089402 44.08994164 -57.89767871 44.08206162 -64.02447623 44.07201904 C-71.00148234 44.06083173 -77.97848931 44.05534086 -84.95550215 44.05032361 C-99.30367928 44.0398783 -113.65183534 44.02154329 -128 44 C-128 59.51 -128 75.02 -128 91 C-119.42 91 -110.84 91 -102 91 C-102 94.63 -102 98.26 -102 102 C-154.47 102 -206.94 102 -261 102 C-261 98.37 -261 94.74 -261 91 C-252.75 91 -244.5 91 -236 91 C-236 75.49 -236 59.98 -236 44 C-239.47732666 44.01571045 -242.95465332 44.0314209 -246.53735352 44.04760742 C-258.02849821 44.09732443 -269.51965784 44.13061039 -281.01088047 44.15543652 C-287.9777685 44.17088895 -294.94455445 44.19194723 -301.91137695 44.22631836 C-308.63518108 44.25947467 -315.35885726 44.27685539 -322.08274651 44.28463173 C-324.64756883 44.29017328 -327.21238538 44.30099453 -329.77716255 44.31719017 C-333.37053069 44.33897786 -336.96346116 44.34196628 -340.55688477 44.34057617 C-341.6164035 44.351362 -342.67592224 44.36214783 -343.76754761 44.3732605 C-349.63121 44.3487271 -353.84151661 43.86842407 -359 41 C-364.00893523 35.85925069 -364.12627715 31.81162356 -364.09765625 24.828125 C-364.0962413 24.1457074 -364.09482635 23.46328979 -364.09336853 22.76019287 C-364.08779084 20.59008316 -364.07524254 18.4200783 -364.0625 16.25 C-364.05748211 14.77474108 -364.05291971 13.29948053 -364.04882812 11.82421875 C-364.03782875 8.21611202 -364.02057953 4.60806625 -364 1 C-323.98285194 0.87178265 -283.96570155 0.74431442 -243.948548 0.61781773 C-239.19844605 0.60280174 -234.44834411 0.5877797 -229.69824219 0.57275391 C-228.75278712 0.56976329 -227.80733205 0.56677268 -226.83322683 0.56369144 C-211.62781413 0.51558011 -196.42240302 0.46698128 -181.21699247 0.41819459 C-165.55480975 0.36795349 -149.89262538 0.31825409 -134.23043942 0.26903296 C-125.45856435 0.24145093 -116.68669015 0.21363501 -107.91481781 0.18519592 C-71.9431702 0.06869034 -35.97189959 -0.04366098 0 0 Z M-352 12 C-352 18.27 -352 24.54 -352 31 C-350.96415613 32.25848164 -350.96415613 32.25848164 -348.70212358 32.1241985 C-347.67270177 32.12381878 -346.64327995 32.12343906 -345.58266354 32.12304783 C-344.39980139 32.12503888 -343.21693924 32.12702993 -341.99823278 32.12908131 C-340.68211415 32.12616847 -339.36599552 32.12325563 -338.00999451 32.12025452 C-336.61082393 32.1206901 -335.21165343 32.12156476 -333.81248337 32.12284368 C-329.94959888 32.12509127 -326.08674185 32.12106378 -322.22386086 32.11606562 C-318.06501203 32.11176506 -313.90616488 32.11320726 -309.74731445 32.1139679 C-302.53582324 32.11449338 -295.32434104 32.11134401 -288.1128521 32.10573006 C-277.68612611 32.09761839 -267.2594045 32.09500018 -256.8326757 32.09374207 C-239.91782625 32.09155102 -223.00298161 32.08488951 -206.08813477 32.07543945 C-189.65258814 32.06626669 -173.21704281 32.05918519 -156.78149414 32.05493164 C-155.76916536 32.05466892 -154.75683659 32.05440619 -153.71383118 32.05413551 C-148.63550167 32.05283051 -143.55717214 32.0515668 -138.47884262 32.05032361 C-96.31922506 32.03994936 -54.15961281 32.02232962 -12 32 C-9.01485158 26.02970315 -11 18.6749948 -11 12 C-123.53 12 -236.06 12 -352 12 Z " fill="#2E3133" transform="translate(448,410)"/>
<path d="M0 0 C0 34.32 0 68.64 0 104 C-97.68 104 -195.36 104 -296 104 C-289.25 96.125 -289.25 96.125 -286.65673828 93.54321289 C-285.78651535 92.67310326 -285.78651535 92.67310326 -284.89871216 91.78541565 C-284.29534027 91.18720505 -283.69196838 90.58899445 -283.0703125 89.97265625 C-282.11751907 89.02198524 -282.11751907 89.02198524 -281.14547729 88.05210876 C-279.14101284 86.05318594 -277.13307786 84.05779216 -275.125 82.0625 C-273.75497611 80.69749867 -272.38518226 79.3322664 -271.015625 77.96679688 C-267.67973457 74.64185789 -264.34072964 71.32007647 -261 68 C-256.89891114 69.62156024 -254.16851833 72.5767703 -251.140625 75.6640625 C-250.59138367 76.21613373 -250.04214233 76.76820496 -249.47625732 77.33700562 C-247.72940707 79.09501815 -245.98965399 80.8598689 -244.25 82.625 C-243.06426409 83.8207708 -241.8780712 85.01608865 -240.69140625 86.2109375 C-237.78894915 89.13540253 -234.8928359 92.06601874 -232 95 C-227.80374091 93.36221955 -225.01323215 90.26676818 -221.921875 87.1171875 C-221.35043762 86.54292023 -220.77900024 85.96865295 -220.19024658 85.37698364 C-218.37207055 83.5476419 -216.56098508 81.71145807 -214.75 79.875 C-213.51608671 78.63105226 -212.28171678 77.3875573 -211.046875 76.14453125 C-208.02593257 73.10157633 -205.01132908 70.05246746 -202 67 C-197.99625569 68.83692389 -195.28042066 71.49117916 -192.25 74.625 C-191.74339844 75.140625 -191.23679687 75.65625 -190.71484375 76.1875 C-189.47196098 77.45383339 -188.23534724 78.7263144 -187 80 C-181.77051256 75.62970634 -176.89710045 71.03088196 -172.09765625 66.1953125 C-171.3750914 65.4713327 -170.65252655 64.74735291 -169.9080658 64.00143433 C-167.62383078 61.71164735 -165.34311688 59.41839007 -163.0625 57.125 C-161.50478961 55.56226839 -159.94684913 53.9997661 -158.38867188 52.4375 C-154.58978398 48.6276469 -150.79377287 44.81494621 -147 41 C-143.77685313 42.53287586 -141.62264402 44.14150688 -139.109375 46.6953125 C-138.40039062 47.41074219 -137.69140625 48.12617188 -136.9609375 48.86328125 C-135.86652344 49.98283203 -135.86652344 49.98283203 -134.75 51.125 C-134.00492188 51.87910156 -133.25984375 52.63320313 -132.4921875 53.41015625 C-130.6568658 55.26900772 -128.8263809 57.13237005 -127 59 C-122.48427696 55.22369848 -118.18724026 51.32390572 -114.0625 47.125 C-113.32290039 46.37863281 -113.32290039 46.37863281 -112.56835938 45.6171875 C-111.37654008 44.41379715 -110.18791322 43.20724635 -109 42 C-106.00779732 43.36370299 -103.70973471 44.94908083 -101.25 47.125 C-100.32960938 47.93324219 -100.32960938 47.93324219 -99.390625 48.7578125 C-98.93171875 49.16773438 -98.4728125 49.57765625 -98 50 C-97.40574219 49.45472656 -96.81148437 48.90945313 -96.19921875 48.34765625 C-90.90288548 43.52906377 -85.50119131 38.89989936 -79.93359375 34.3984375 C-76.13088251 31.28942991 -72.39617661 28.10310698 -68.6784668 24.89306641 C-64.90178874 21.66379382 -61.08237356 18.91598112 -57 16 C-50.73 22.27 -44.46 28.54 -38 35 C-34.62216555 33.31108278 -33.06309562 32.3071356 -30.5324707 29.74365234 C-29.8753157 29.08311859 -29.21816071 28.42258484 -28.54109192 27.74203491 C-27.8430394 27.03052277 -27.14498688 26.31901062 -26.42578125 25.5859375 C-25.33912422 24.49147812 -25.33912422 24.49147812 -24.23051453 23.37490845 C-21.91971151 21.04630187 -19.61571279 18.7111124 -17.3125 16.375 C-14.99770485 14.03263921 -12.68148771 11.69173022 -10.36235046 9.35366821 C-8.91951362 7.89851733 -7.47935722 6.44070315 -6.04206848 4.98007202 C-5.07052071 3.99872787 -5.07052071 3.99872787 -4.0793457 2.99755859 C-3.22141167 2.12724503 -3.22141167 2.12724503 -2.34614563 1.23934937 C-1 0 -1 0 0 0 Z " fill="#F85632" transform="translate(404,283)"/>
<path d="M0 0 C4.62 0 9.24 0 14 0 C14 20.79 14 41.58 14 63 C26.21 63 38.42 63 51 63 C51 83.79 51 104.58 51 126 C5.13 126 -40.74 126 -88 126 C-88 116.76 -88 107.52 -88 98 C-88.99 98 -89.98 98 -91 98 C-91 81.5 -91 65 -91 48 C-86.38 48 -81.76 48 -77 48 C-77 52.95 -77 57.9 -77 63 C-75.68 63 -74.36 63 -73 63 C-73 47.82 -73 32.64 -73 17 C-68.05 17 -63.1 17 -58 17 C-58 32.18 -58 47.36 -58 63 C-57.01 63 -56.02 63 -55 63 C-55 60.69 -55 58.38 -55 56 C-50.05 56 -45.1 56 -40 56 C-40 58.31 -40 60.62 -40 63 C-32.74 63 -25.48 63 -18 63 C-18 52.11 -18 41.22 -18 30 C-13.38 30 -8.76 30 -4 30 C-4 40.89 -4 51.78 -4 63 C-2.68 63 -1.36 63 0 63 C0 42.21 0 21.42 0 0 Z " fill="#65D1DB" transform="translate(197,125)"/>
<path d="M0 0 C1.18529297 -0.00128906 2.37058594 -0.00257812 3.59179688 -0.00390625 C4.81576172 -0.00003906 6.03972656 0.00382812 7.30078125 0.0078125 C9.15413086 0.00201172 9.15413086 0.00201172 11.04492188 -0.00390625 C12.81706055 -0.00197266 12.81706055 -0.00197266 14.625 0 C16.24088013 0.00169189 16.24088013 0.00169189 17.8894043 0.00341797 C20.61328125 0.1328125 20.61328125 0.1328125 23.61328125 1.1328125 C22.98885501 13.5567415 21.30505942 25.81768599 19.61328125 38.1328125 C20.26989746 38.37878174 20.92651367 38.62475098 21.60302734 38.87817383 C32.40501664 43.03927071 41.96474181 49.43494293 48.61328125 59.1328125 C49.828125 62.40625 49.828125 62.40625 50.61328125 65.1328125 C51.58910156 64.6996875 52.56492187 64.2665625 53.5703125 63.8203125 C54.85534305 63.2575254 56.14050627 62.69504116 57.42578125 62.1328125 C58.06837891 61.84664062 58.71097656 61.56046875 59.37304688 61.265625 C62.29084594 59.99570209 64.39593839 59.1328125 67.61328125 59.1328125 C68.26693524 60.67117958 68.91081728 62.21370016 69.55078125 63.7578125 C69.91042969 64.61632812 70.27007812 65.47484375 70.640625 66.359375 C75.92960235 81.44039475 73.71502292 100.78219197 67.29296875 115.0703125 C62.86060244 123.78972163 56.73690037 131.45441957 49.61328125 138.1328125 C46.70785313 136.8303792 44.80398515 135.42394982 42.61328125 133.1328125 C42.07960938 133.51953125 41.5459375 133.90625 40.99609375 134.3046875 C29.46706886 142.36303708 17.64216535 145.59277591 3.61328125 145.1328125 C3.61328125 141.8328125 3.61328125 138.5328125 3.61328125 135.1328125 C2.66453125 135.1946875 1.71578125 135.2565625 0.73828125 135.3203125 C-10.69076191 135.22851296 -20.59569166 128.94534561 -28.69921875 121.3203125 C-38.41457073 110.94932327 -43.01050697 98.25968878 -42.8659668 84.09985352 C-42.5499489 76.57279903 -40.87670916 68.8263903 -36.625 62.51953125 C-35.11664638 60.25422804 -35.11664638 60.25422804 -35.89453125 58.07421875 C-37.76816599 55.63653166 -39.83001516 53.95576384 -42.26171875 52.0703125 C-47.21542668 48.13744795 -51.89089781 44.00401692 -56.50146484 39.67553711 C-59.22488808 37.10266161 -59.22488808 37.10266161 -62.38671875 35.1328125 C-58.15412022 22.36711427 -42.71536631 13.78354518 -31.38671875 7.8203125 C-21.44336018 3.07282034 -11.0515628 0.01153522 0 0 Z M-42.38671875 29.1328125 C-44.19462328 31.26479896 -44.19462328 31.26479896 -45.38671875 33.1328125 C-43.13969839 35.24017992 -40.88858444 37.34312439 -38.63671875 39.4453125 C-38.0025 40.04021484 -37.36828125 40.63511719 -36.71484375 41.24804688 C-32.33203304 45.56749705 -32.33203304 45.56749705 -27.38671875 49.1328125 C-24.06038869 48.90631143 -22.09820427 47.30798133 -19.51171875 45.3203125 C-11.47933086 39.79721604 -1.90834481 38.18613586 7.61328125 37.1328125 C8.11909979 33.73781946 8.61690369 30.34169768 9.11328125 26.9453125 C9.25636719 25.98560547 9.39945313 25.02589844 9.546875 24.03710938 C9.68222656 23.10576172 9.81757813 22.17441406 9.95703125 21.21484375 C10.08271484 20.36124268 10.20839844 19.5076416 10.33789062 18.62817383 C10.61600681 16.10811575 10.66088925 13.66595468 10.61328125 11.1328125 C-8.71230704 10.09751313 -27.54730216 16.91472998 -42.38671875 29.1328125 Z " fill="#C0CDD3" transform="translate(310.38671875,-0.1328125)"/>
<path d="M0 0 C6.21790252 5.36469409 9.37926196 11.37838651 10.27734375 19.51171875 C10.54359692 26.46625164 8.97149463 31.90193701 5.25 37.75 C3.68034673 40.57537589 4.21331311 40.96658167 5 44 C5.12708006 46.27944359 5.19976356 48.56210642 5.24047852 50.84472656 C5.25347488 51.52496384 5.26647125 52.20520111 5.27986145 52.90605164 C5.40637915 60.00228549 5.46327156 67.09967019 5.51489258 74.19677734 C5.54163768 77.55909939 5.59037412 80.92000376 5.65844727 84.28173828 C5.74063704 88.35195171 5.78311081 92.42081551 5.79795647 96.49181366 C5.81016049 98.03721886 5.83609284 99.58258255 5.87640572 101.12751007 C6.17616857 113.22037488 6.17616857 113.22037488 3.1635437 117.77868652 C1.20598536 119.75170204 -0.71169697 121.42936407 -3 123 C-7 121 -7 121 -19 109 C-19 92.83 -19 76.66 -19 60 C-77.08 60 -135.16 60 -195 60 C-195 51.75 -195 43.5 -195 35 C-144.84 34.67 -94.68 34.34 -43 34 C-43.99 31.03 -43.99 31.03 -45 28 C-46.04395436 19.34067329 -45.24846527 12.11512497 -40 5 C-28.74209224 -7.11293873 -13.98842665 -9.45861735 0 0 Z " fill="#C0CDD3" transform="translate(443,129)"/>
<path d="M0 0 C11.88 0 23.76 0 36 0 C36 11.88 36 23.76 36 36 C32.04 36 28.08 36 24 36 C23.67 31.38 23.34 26.76 23 22 C21.47246094 23.53539429 21.47246094 23.53539429 19.9140625 25.10180664 C16.10724972 28.92682528 12.29704177 32.74844685 8.48583984 36.5690918 C6.84201896 38.21791744 5.19909971 39.86764251 3.55712891 41.51831055 C1.18633142 43.90134347 -1.18777291 46.28103996 -3.5625 48.66015625 C-4.28679199 49.38960953 -5.01108398 50.11906281 -5.75732422 50.87062073 C-9.21616666 54.32983632 -12.7197675 57.73051043 -16.33984375 61.02124023 C-16.97140381 61.59567368 -17.60296387 62.17010712 -18.25366211 62.76194763 C-20 64 -20 64 -23 64 C-25.16443833 62.03098292 -27.17576829 60.05279576 -29.1875 57.9375 C-30.35744443 56.73509769 -31.52931125 55.53456278 -32.703125 54.3359375 C-33.55293945 53.46727051 -33.55293945 53.46727051 -34.41992188 52.58105469 C-36.92085656 50.0785743 -39.58257229 47.78855325 -42.27734375 45.5 C-44.99305811 43.13529634 -47.48617579 40.57666982 -50 38 C-52.78823237 39.28923981 -54.98996602 40.68619531 -57.28515625 42.72265625 C-57.89246582 43.25648926 -58.49977539 43.79032227 -59.12548828 44.34033203 C-59.76470215 44.90864746 -60.40391602 45.47696289 -61.0625 46.0625 C-62.41432914 47.2498778 -63.76719963 48.43607105 -65.12109375 49.62109375 C-66.11471924 50.49096924 -66.11471924 50.49096924 -67.12841797 51.37841797 C-70.44460892 54.25164263 -73.85755347 57.00286879 -77.265625 59.765625 C-80.33022522 62.26984118 -83.35596688 64.81622364 -86.375 67.375 C-87.18251709 68.0565918 -87.18251709 68.0565918 -88.00634766 68.75195312 C-90.87488875 71.17780233 -93.71976593 73.62641013 -96.5390625 76.109375 C-97.11865723 76.6142041 -97.69825195 77.1190332 -98.29541016 77.63916016 C-99.40346915 78.60502195 -100.50512265 79.57829938 -101.59912109 80.56005859 C-106.93696195 85.18732608 -106.93696195 85.18732608 -111 85 C-113.67578125 82.91015625 -113.67578125 82.91015625 -116.3125 80.0625 C-117.19550781 79.12535156 -118.07851563 78.18820312 -118.98828125 77.22265625 C-119.98408203 76.12244141 -119.98408203 76.12244141 -121 75 C-124.86328627 76.5847358 -127.28876923 79.05956887 -130.203125 82.0078125 C-130.9271048 82.73603714 -130.9271048 82.73603714 -131.66571045 83.47897339 C-133.19858562 85.02299866 -134.72434004 86.57384824 -136.25 88.125 C-137.29120361 89.17624009 -138.33286541 90.22702657 -139.375 91.27734375 C-141.92199464 93.84633004 -144.46265177 96.42148161 -147 99 C-151.00517396 97.39626852 -153.6771098 94.57886014 -156.640625 91.5546875 C-157.16767029 91.02481232 -157.69471558 90.49493713 -158.23773193 89.94900513 C-159.91325675 88.26232175 -161.58167722 86.56880436 -163.25 84.875 C-164.38755851 83.72740612 -165.52557436 82.58026539 -166.6640625 81.43359375 C-169.44803465 78.62761863 -172.2256576 75.81549536 -175 73 C-180.94856452 77.87446765 -186.31698823 83.25124012 -191.69244957 88.73954582 C-193.84129181 90.93087655 -195.99984115 93.11254106 -198.15778065 95.29490757 C-202.1625805 99.34529021 -206.16317663 103.3996355 -210.14770508 107.4699707 C-212.93310164 110.31460292 -215.73042651 113.14700297 -218.53614235 115.97159004 C-219.60083526 117.04804178 -220.66097295 118.12901864 -221.71643639 119.21452141 C-223.18599802 120.72489909 -224.67024005 122.21920644 -226.15893555 123.71069336 C-226.9994194 124.56529648 -227.83990326 125.4198996 -228.70585632 126.30039978 C-231 128 -231 128 -233.1709137 127.87844849 C-235.72321917 126.65266221 -237.34921902 124.98615486 -239.328125 122.96484375 C-240.52695312 121.75151367 -240.52695312 121.75151367 -241.75 120.51367188 C-242.575 119.66353516 -243.4 118.81339844 -244.25 117.9375 C-245.09046875 117.08349609 -245.9309375 116.22949219 -246.796875 115.34960938 C-248.87147597 113.23964588 -250.93875832 111.12300292 -253 109 C-258.39190397 113.4978935 -263.39391684 118.26126542 -268.33984375 123.2421875 C-269.10680069 124.01055939 -269.87375763 124.77893127 -270.66395569 125.57058716 C-273.0908474 128.00303509 -275.51422127 130.43895322 -277.9375 132.875 C-279.59156486 134.53408552 -281.24585945 136.19294202 -282.90039062 137.8515625 C-286.93625433 141.89839709 -290.96924277 145.94807953 -295 150 C-300.22948744 145.62970634 -305.10289955 141.03088196 -309.90234375 136.1953125 C-310.98619102 135.1093428 -310.98619102 135.1093428 -312.0919342 134.00143433 C-314.37616922 131.71164735 -316.65688312 129.41839007 -318.9375 127.125 C-320.49521039 125.56226839 -322.05315087 123.9997661 -323.61132812 122.4375 C-327.41021602 118.6276469 -331.20622713 114.81494621 -335 111 C-337.78139134 112.34059035 -339.80331915 113.56659347 -341.953125 115.79296875 C-342.49066406 116.34146484 -343.02820313 116.88996094 -343.58203125 117.45507812 C-344.40767578 118.31262695 -344.40767578 118.31262695 -345.25 119.1875 C-348.69590223 122.74549784 -352.16535171 126.19290042 -355.91796875 129.4296875 C-360.15367391 133.08622481 -364.11854615 136.97059395 -368.0625 140.9375 C-368.73087891 141.60201172 -369.39925781 142.26652344 -370.08789062 142.95117188 C-370.75111328 143.61568359 -371.41433594 144.28019531 -372.09765625 144.96484375 C-372.68039307 145.5487085 -373.26312988 146.13257324 -373.86352539 146.73413086 C-375.72177688 148.70492644 -377.4940686 150.71616223 -379.26367188 152.76586914 C-382.90412326 156.94716377 -386.74938635 160.87763102 -390.68359375 164.78125 C-391.38396255 165.48020386 -392.08433136 166.17915771 -392.80592346 166.89929199 C-395.01408458 169.10191539 -397.22572037 171.30101081 -399.4375 173.5 C-400.94749814 175.00497508 -402.4572659 176.51018135 -403.96679688 178.015625 C-407.64187641 181.67975829 -411.32007356 185.3407348 -415 189 C-416.15518918 188.09515208 -417.29885406 187.1755794 -418.4375 186.25 C-419.39462891 185.48429687 -419.39462891 185.48429687 -420.37109375 184.703125 C-422.27362084 182.71391202 -422.95446348 181.76521069 -423 179 C-421.4657135 176.85771179 -421.4657135 176.85771179 -419.10961914 174.52612305 C-417.79683739 173.20906624 -417.79683739 173.20906624 -416.45753479 171.86540222 C-415.48373234 170.91384299 -414.50959748 169.96262384 -413.53515625 169.01171875 C-412.5429624 168.02631846 -411.55180143 167.03987719 -410.56163025 166.05244446 C-407.94370443 163.44795867 -405.31068792 160.85923909 -402.67468262 158.27307129 C-400.54585586 156.17938379 -398.42798489 154.07481211 -396.31067753 151.96948528 C-393.76431135 149.4380473 -391.21288722 146.91173651 -388.66015625 144.38671875 C-388.18167803 143.9131513 -387.70319981 143.43958385 -387.21022224 142.95166588 C-382.1575141 137.95960049 -377.05715632 133.08283751 -371.6721344 128.45024109 C-369.61781428 126.66853057 -367.67041598 124.79975989 -365.74609375 122.87890625 C-365.03646484 122.17056641 -364.32683594 121.46222656 -363.59570312 120.73242188 C-362.88349609 120.01634766 -362.17128906 119.30027344 -361.4375 118.5625 C-360.36338867 117.49418945 -360.36338867 117.49418945 -359.26757812 116.40429688 C-355.20240899 112.3317298 -351.33046258 108.15475855 -347.57397461 103.79663086 C-345.50029103 101.42960163 -343.30435032 99.20736031 -341.0625 97 C-340.29035156 96.236875 -339.51820313 95.47375 -338.72265625 94.6875 C-338.15417969 94.130625 -337.58570313 93.57375 -337 93 C-333.77254476 94.41901662 -331.62741893 96.12855765 -329.14941406 98.62353516 C-328.40894836 99.36415192 -327.66848267 100.10476868 -326.90557861 100.86782837 C-325.72255157 102.06633926 -325.72255157 102.06633926 -324.515625 103.2890625 C-323.70003113 104.10748627 -322.88443726 104.92591003 -322.04412842 105.76913452 C-319.44135438 108.38309973 -316.84562238 111.00393505 -314.25 113.625 C-312.4861366 115.39889454 -310.7218191 117.17233766 -308.95703125 118.9453125 C-304.63273864 123.29165142 -300.3142067 127.64365081 -296 132 C-290.60809603 127.5021065 -285.60608316 122.73873458 -280.66015625 117.7578125 C-279.89319931 116.98944061 -279.12624237 116.22106873 -278.33604431 115.42941284 C-275.9091526 112.99696491 -273.48577873 110.56104678 -271.0625 108.125 C-269.40843514 106.46591448 -267.75414055 104.80705798 -266.09960938 103.1484375 C-262.06374567 99.10160291 -258.03075723 95.05192047 -254 91 C-250.31541017 94.11772677 -246.65324874 97.21672032 -243.25390625 100.6484375 C-242.64482422 101.26074219 -242.03574219 101.87304688 -241.40820312 102.50390625 C-240.79912109 103.12136719 -240.19003906 103.73882812 -239.5625 104.375 C-238.92634766 105.01566406 -238.29019531 105.65632813 -237.63476562 106.31640625 C-236.08749527 107.87531022 -234.54309708 109.43696852 -233 111 C-226.38927013 105.5664118 -220.40785804 99.53553957 -214.37890625 93.4765625 C-213.26811831 92.36390615 -212.1571069 91.25147284 -211.04588318 90.13925171 C-208.14211066 87.2316873 -205.24135564 84.32113095 -202.34124756 81.40991211 C-199.37321737 78.43159571 -196.40230338 75.45615894 -193.43164062 72.48046875 C-187.61828917 66.65643877 -181.80812666 60.8292405 -176 55 C-171.8230787 58.51240575 -167.79094884 62.0862345 -163.94140625 65.9609375 C-163.06162109 66.84394531 -162.18183594 67.72695313 -161.27539062 68.63671875 C-160.38013672 69.54035156 -159.48488281 70.44398438 -158.5625 71.375 C-157.64017578 72.30183594 -156.71785156 73.22867188 -155.76757812 74.18359375 C-153.50941375 76.45345846 -151.25363058 78.72563538 -149 81 C-145.13671373 79.4152642 -142.71123077 76.94043113 -139.796875 73.9921875 C-139.3142218 73.50670441 -138.8315686 73.02122131 -138.33428955 72.52102661 C-136.80141438 70.97700134 -135.27565996 69.42615176 -133.75 67.875 C-132.70879639 66.82375991 -131.66713459 65.77297343 -130.625 64.72265625 C-128.07800536 62.15366996 -125.53734823 59.57851839 -123 57 C-119.14972009 58.78200687 -116.7200858 61.07675405 -113.75 64.125 C-112.85796875 65.03507812 -111.9659375 65.94515625 -111.046875 66.8828125 C-110.03367187 67.93082031 -110.03367187 67.93082031 -109 69 C-103.5430607 65.11307396 -98.56993675 60.86292624 -93.625 56.34765625 C-90.14979657 53.23962461 -86.54092843 50.31592795 -82.91796875 47.3828125 C-79.74582437 44.79244025 -76.61961259 42.15311987 -73.5 39.5 C-66.09808542 33.21150203 -58.59107141 27.05930164 -51 21 C-43.06484785 24.31999469 -37.15450716 32.69601067 -31.671875 39.10546875 C-28.92746498 42.21537263 -25.97206494 45.10923774 -23 48 C-19.95418514 46.63886987 -17.86160974 45.10669904 -15.51660156 42.74365234 C-14.85621887 42.08311859 -14.19583618 41.42258484 -13.51544189 40.74203491 C-12.81425232 40.03052277 -12.11306274 39.31901062 -11.390625 38.5859375 C-10.66381531 37.85629791 -9.93700562 37.12665833 -9.18817139 36.37490845 C-6.87070802 34.0462612 -4.5603005 31.71075174 -2.25 29.375 C-0.67884556 27.79381347 0.89276371 26.21307875 2.46484375 24.6328125 C6.31519078 20.76042882 10.15922482 16.88187666 14 13 C7.07 12.505 7.07 12.505 0 12 C0 8.04 0 4.08 0 0 Z " fill="#2D3133" transform="translate(461,203)"/>
<path d="M0 0 C0.788133 0.00092179 1.576266 0.00184359 2.38828182 0.00279331 C3.28997097 0.00141865 4.19166012 0.00004398 5.12067318 -0.00137234 C6.6160738 0.00402058 6.6160738 0.00402058 8.14168453 0.00952244 C9.18546261 0.00937641 10.22924068 0.00923038 11.3046484 0.00907993 C14.77305295 0.00977956 18.24140454 0.0175743 21.70979977 0.02539158 C24.1073367 0.02725558 26.50487401 0.02867957 28.90241146 0.0296793 C35.22684936 0.03350589 41.55126446 0.04333737 47.87569332 0.05438328 C55.45640498 0.06638823 63.03712424 0.07099897 70.61784267 0.07683659 C82.14720883 0.08654905 93.67652492 0.10570464 105.20589352 0.12304783 C105.20589352 15.96304783 105.20589352 31.80304783 105.20589352 48.12304783 C113.78589352 48.12304783 122.36589352 48.12304783 131.20589352 48.12304783 C131.20589352 51.75304783 131.20589352 55.38304783 131.20589352 59.12304783 C78.73589352 59.12304783 26.26589352 59.12304783 -27.79410648 59.12304783 C-27.79410648 55.49304783 -27.79410648 51.86304783 -27.79410648 48.12304783 C-19.54410648 48.12304783 -11.29410648 48.12304783 -2.79410648 48.12304783 C-2.80570805 44.74183689 -2.81730961 41.36062595 -2.82926273 37.87695408 C-2.83705223 34.61710803 -2.8431296 31.357263 -2.84903812 28.09741306 C-2.85407974 25.82462192 -2.86091286 23.55183403 -2.86954594 21.27905369 C-2.88161909 18.02001232 -2.88733635 14.76101366 -2.89176273 11.50195408 C-2.89692402 10.47904774 -2.9020853 9.4561414 -2.90740299 8.40223789 C-2.90751629 6.99088818 -2.90751629 6.99088818 -2.90763187 5.55102634 C-2.90985249 4.718297 -2.9120731 3.88556767 -2.914361 3.0276041 C-2.75563502 0.51374793 -2.51773674 0.17267762 0 0 Z " fill="#C0CDD3" transform="translate(214.79410648345947,452.8769521713257)"/>
<path d="M0 0 C7.875 6.75 7.875 6.75 11.4375 10.375 C12.11683594 11.06335938 12.79617188 11.75171875 13.49609375 12.4609375 C13.99238281 12.96882813 14.48867188 13.47671875 15 14 C15.48210937 13.57847656 15.96421875 13.15695312 16.4609375 12.72265625 C17.09257812 12.17480469 17.72421875 11.62695312 18.375 11.0625 C19.00148438 10.51722656 19.62796875 9.97195313 20.2734375 9.41015625 C22 8 22 8 24 7 C24 56.5 24 106 24 157 C9.48 157 -5.04 157 -20 157 C-20 149.41 -20 141.82 -20 134 C-13.4 134 -6.8 134 0 134 C0 89.78 0 45.56 0 0 Z " fill="#C0CDD3" transform="translate(424,253)"/>
<path d="M0 0 C1.18529297 -0.00128906 2.37058594 -0.00257812 3.59179688 -0.00390625 C4.81576172 -0.00003906 6.03972656 0.00382812 7.30078125 0.0078125 C9.15413086 0.00201172 9.15413086 0.00201172 11.04492188 -0.00390625 C12.81706055 -0.00197266 12.81706055 -0.00197266 14.625 0 C16.24088013 0.00169189 16.24088013 0.00169189 17.8894043 0.00341797 C20.61328125 0.1328125 20.61328125 0.1328125 23.61328125 1.1328125 C22.72588476 18.78894267 19.93628052 36.2371059 17.17358398 53.67822266 C14.93339392 68.11118653 13.29698887 82.62639906 11.61328125 97.1328125 C7.81202411 95.35781399 5.0637755 92.94243949 2.05078125 90.0703125 C-1.82347772 86.44294258 -5.7445775 82.95734677 -9.88671875 79.6328125 C-13.8032042 76.48393578 -17.53345493 73.1920544 -21.19921875 69.7578125 C-25.9759926 65.29283851 -30.98160462 61.24932465 -36.1640625 57.26708984 C-40.18860893 54.14739857 -43.98177849 50.86147964 -47.69921875 47.3828125 C-52.39066723 42.99363184 -57.22338538 38.95315765 -62.38671875 35.1328125 C-58.15412022 22.36711427 -42.71536631 13.78354518 -31.38671875 7.8203125 C-21.44336018 3.07282034 -11.0515628 0.01153522 0 0 Z M-42.38671875 29.1328125 C-44.19462328 31.26479896 -44.19462328 31.26479896 -45.38671875 33.1328125 C-43.13969839 35.24017992 -40.88858444 37.34312439 -38.63671875 39.4453125 C-38.0025 40.04021484 -37.36828125 40.63511719 -36.71484375 41.24804688 C-32.33203304 45.56749705 -32.33203304 45.56749705 -27.38671875 49.1328125 C-24.06038869 48.90631143 -22.09820427 47.30798133 -19.51171875 45.3203125 C-11.47933086 39.79721604 -1.90834481 38.18613586 7.61328125 37.1328125 C8.11909979 33.73781946 8.61690369 30.34169768 9.11328125 26.9453125 C9.25636719 25.98560547 9.39945313 25.02589844 9.546875 24.03710938 C9.68222656 23.10576172 9.81757813 22.17441406 9.95703125 21.21484375 C10.08271484 20.36124268 10.20839844 19.5076416 10.33789062 18.62817383 C10.61600681 16.10811575 10.66088925 13.66595468 10.61328125 11.1328125 C-8.71230704 10.09751313 -27.54730216 16.91472998 -42.38671875 29.1328125 Z " fill="#2E3133" transform="translate(310.38671875,-0.1328125)"/>
<path d="M0 0 C0.65365399 1.53836708 1.29753603 3.08088766 1.9375 4.625 C2.47697266 5.91277344 2.47697266 5.91277344 3.02734375 7.2265625 C8.3163211 22.30758225 6.10174167 41.64937947 -0.3203125 55.9375 C-4.75267881 64.65690913 -10.87638088 72.32160707 -18 79 C-22.09942509 77.45690575 -23.88274157 74.84740354 -26.4375 71.375 C-27.31021349 70.20402158 -28.18533695 69.03483653 -29.0625 67.8671875 C-29.53042969 67.24424805 -29.99835938 66.62130859 -30.48046875 65.97949219 C-33.74910515 61.72144207 -37.19451089 57.60169854 -40.62084961 53.47021484 C-43.38356652 50.10959336 -45.88874911 46.82526294 -48 43 C-47.401875 42.484375 -46.80375 41.96875 -46.1875 41.4375 C-39.86045099 34.38735968 -40.66109516 27.0500145 -41 18 C-39.84886719 17.45472656 -38.69773437 16.90945312 -37.51171875 16.34765625 C-36.37089844 15.80709595 -36.37089844 15.80709595 -35.20703125 15.25561523 C-33.51337776 14.45359153 -31.81936118 13.65233418 -30.125 12.85180664 C-25.61235105 10.71838019 -21.10657193 8.57237188 -16.61328125 6.3984375 C-15.32707886 5.77956665 -15.32707886 5.77956665 -14.01489258 5.14819336 C-12.36013728 4.35157832 -10.70755701 3.55042665 -9.05737305 2.74438477 C-8.30625244 2.38401123 -7.55513184 2.0236377 -6.78125 1.65234375 C-6.12189453 1.33257568 -5.46253906 1.01280762 -4.78320312 0.68334961 C-3 0 -3 0 0 0 Z " fill="#62D0DA" transform="translate(378,59)"/>
<path d="M0 0 C6.21790252 5.36469409 9.37926196 11.37838651 10.27734375 19.51171875 C10.59121708 27.71009012 8.24910848 34.64581606 3 41 C-5.61660903 47.75749076 -12.99693507 50.25238137 -24 49 C-32.91786593 46.08755256 -39.32611734 40.03548288 -44 32 C-46.36659118 24.97511858 -46.09516322 16.40938239 -43.0625 9.6875 C-39.17313789 2.89496731 -33.42638307 -2.43540617 -26 -5 C-16.68499133 -7.38290919 -7.87118612 -5.32229532 0 0 Z " fill="#F85531" transform="translate(443,129)"/>
<path d="M0 0 C6.58079046 4.4800443 11.08490147 10.22999346 13.60546875 17.82421875 C15.15228859 26.35470044 15.08867152 35.20850963 10.61328125 42.78515625 C5.05482085 50.4162629 -1.08781972 55.02927324 -10 58 C-22.07389476 58.94666784 -30.76842592 56.88061202 -40 49 C-43 45.61290323 -43 45.61290323 -43 43 C-43.66 43 -44.32 43 -45 43 C-49.22176837 32.90446695 -50.23437243 23.96855465 -46.03125 13.61328125 C-41.9053078 5.40321383 -35.50719034 -0.25821389 -26.8359375 -3.33984375 C-17.57096794 -5.49656531 -8.25569228 -4.85291129 0 0 Z M-30.875 12.6875 C-35.07136135 16.65940481 -36.88440417 20.75326482 -37.08984375 26.5234375 C-36.76635646 32.0476051 -35.60652421 35.65095611 -32 40 C-31.57114502 40.5367334 -31.14229004 41.0734668 -30.70043945 41.62646484 C-27.08557342 44.54638391 -21.63130506 43.59878286 -17.1875 43.625 C-16.10662109 43.67011719 -15.02574219 43.71523437 -13.91210938 43.76171875 C-8.10460603 43.88974191 -8.10460603 43.88974191 -2.95581055 41.56884766 C1.19407574 36.94924553 2.8675509 32.18726531 3 26 C2.02787561 19.82998598 -0.57448513 15.32259591 -5 11 C-13.9138584 5.38039362 -22.71487195 6.38664163 -30.875 12.6875 Z " fill="#2D3133" transform="translate(123,71)"/>
<path d="M0 0 C8.25 0 16.5 0 25 0 C25.70486697 9.82837589 26.22021257 19.65114529 26.5 29.5 C26.52039715 30.21584511 26.5407943 30.93169022 26.56180954 31.6692276 C27.34196844 62.68980795 27.34196844 62.68980795 18.10519409 73.27947998 C13.09072098 78.36588029 7.31834878 82.67469345 1 86 C0.67 86 0.34 86 0 86 C0 57.62 0 29.24 0 0 Z " fill="#C0CDD3" transform="translate(84,251)"/>
<path d="M0 0 C52.47 0 104.94 0 159 0 C159 3.63 159 7.26 159 11 C106.53 11 54.06 11 0 11 C0 7.37 0 3.74 0 0 Z " fill="#303335" transform="translate(187,501)"/>
<path d="M0 0 C4.3531279 53.97483758 4.3531279 53.97483758 -5.30859375 66.12890625 C-10.58225803 72.11462733 -17.05270513 77.10573702 -24 81 C-24.33 81 -24.66 81 -25 81 C-29.16966995 25.84796507 -29.16966995 25.84796507 -19.94921875 14.02734375 C-15.49453369 8.91011568 -7.01337226 0 0 0 Z " fill="#BFCCD2" transform="translate(109,329)"/>
<path d="M0 0 C4.62 0 9.24 0 14 0 C14 32.34 14 64.68 14 98 C9.38 98 4.76 98 0 98 C0 65.66 0 33.32 0 0 Z " fill="#FCFEFE" transform="translate(197,125)"/>
<path d="M0 0 C4.57423357 13.72270072 6.16901635 25.42052439 0 39 C-3.43589924 45.80248639 -7.78054088 51.47169714 -13 57 C-17.50562287 55.42728258 -19.72483594 51.90988939 -22.5 48.25 C-22.97308594 47.6415625 -23.44617188 47.033125 -23.93359375 46.40625 C-26.78975659 42.70352366 -29.45083891 38.91993639 -32 35 C-31.401875 34.484375 -30.80375 33.96875 -30.1875 33.4375 C-23.86045099 26.38735968 -24.66109516 19.0500145 -25 10 C-21.89716979 8.51801792 -18.79251273 7.03990317 -15.6875 5.5625 C-14.80642578 5.14162109 -13.92535156 4.72074219 -13.01757812 4.28710938 C-12.17001953 3.88427734 -11.32246094 3.48144531 -10.44921875 3.06640625 C-9.27879028 2.5086853 -9.27879028 2.5086853 -8.0847168 1.93969727 C-5.23070093 0.65323432 -3.1548016 0 0 0 Z " fill="#4CA9B6" transform="translate(362,67)"/>
<path d="M0 0 C7.26 0 14.52 0 22 0 C22 7.59 22 15.18 22 23 C20.68 23 19.36 23 18 23 C18 18.05 18 13.1 18 8 C13.38 8 8.76 8 4 8 C4 24.5 4 41 4 58 C4.66 58 5.32 58 6 58 C6 66.91 6 75.82 6 85 C-1.59 85 -9.18 85 -17 85 C-17.04520072 75.17718788 -17.08188732 65.35444494 -17.10362434 55.53155231 C-17.11405748 50.97029567 -17.12820815 46.40911393 -17.15087891 41.84790039 C-17.17262398 37.44533236 -17.18457217 33.04283633 -17.18975449 28.64021873 C-17.19344725 26.96131443 -17.20065828 25.28241403 -17.21146011 23.60354042 C-17.22599718 21.25033707 -17.22797702 18.89743055 -17.22705078 16.54418945 C-17.23424133 15.8515097 -17.24143188 15.15882996 -17.24884033 14.44515991 C-17.23214932 10.52121332 -16.71857602 7.5362935 -15 4 C-14.67 4 -14.34 4 -14 4 C-14 21.82 -14 39.64 -14 58 C-9.38 58 -4.76 58 0 58 C0 38.86 0 19.72 0 0 Z " fill="#4BA9B6" transform="translate(102,165)"/>
<path d="M0 0 C2.99025372 2.20186291 5.05508542 5.02032347 7.26171875 7.96484375 C8.22773488 9.23286289 9.1952047 10.49977577 10.1640625 11.765625 C10.88891846 12.71429443 10.88891846 12.71429443 11.62841797 13.68212891 C12.98663349 15.41556235 14.38715585 17.09291248 15.828125 18.7578125 C16.65183594 19.71300781 17.47554688 20.66820313 18.32421875 21.65234375 C19.071875 22.50054687 19.81953125 23.34875 20.58984375 24.22265625 C22.07421875 26.52734375 22.07421875 26.52734375 22.078125 28.64453125 C18.62233715 35.12581431 8.3707201 37.76886884 1.82421875 39.78125 C-3.05261235 41.10436753 -7.606791 41.56126182 -12.6328125 41.54296875 C-13.43823486 41.54071289 -14.24365723 41.53845703 -15.07348633 41.53613281 C-15.68474365 41.53323242 -16.29600098 41.53033203 -16.92578125 41.52734375 C-16.8075276 36.59757356 -16.68327883 31.66800479 -16.5534668 26.73852539 C-16.51014958 25.06148388 -16.46847218 23.38439917 -16.4284668 21.70727539 C-16.3706864 19.29690534 -16.30701445 16.88675205 -16.2421875 14.4765625 C-16.22547501 13.72646408 -16.20876251 12.97636566 -16.19154358 12.20353699 C-16.10233892 9.07056383 -15.92341672 6.52025015 -14.92578125 3.52734375 C-13 2.8671875 -13 2.8671875 -10.61328125 2.46484375 C-8.03234809 2.0169132 -6.16074892 1.66347225 -3.8828125 0.34375 C-1.92578125 -0.47265625 -1.92578125 -0.47265625 0 0 Z " fill="#BC472C" transform="translate(330.92578125,103.47265625)"/>
<path d="M0 0 C7.75 -0.125 7.75 -0.125 10 1 C10.44173663 11.24677951 9.06834454 21.02892645 7.5625 31.125 C7.10212817 34.27295659 6.646291 37.42155887 6.19140625 40.5703125 C6.08325592 41.31355774 5.97510559 42.05680298 5.86367798 42.8225708 C5.08905319 48.20461266 4.47419508 53.58218499 4 59 C0.19874286 57.22500149 -2.54950575 54.80962699 -5.5625 51.9375 C-9.43675897 48.31013008 -13.35785875 44.82453427 -17.5 41.5 C-22.63582648 37.36900913 -27.45933213 32.9766615 -32.2734375 28.48046875 C-34.77403718 26.2055679 -37.33529508 24.07846983 -40 22 C-39.64947365 18.84526281 -39.13480924 17.1766466 -37.1875 14.625 C-35 13 -35 13 -33.2109375 13.0859375 C-30.03539556 14.39879406 -27.86698153 16.64281036 -25.4375 19 C-20.51942207 23.64994414 -15.46331146 27.98809966 -10.1796875 32.22265625 C-8 34 -8 34 -6 36 C-4.32380228 25.61874881 -2.71058431 15.24677916 -1.4296875 4.80859375 C-1 2 -1 2 0 0 Z " fill="#262B2D" transform="translate(318,38)"/>
<path d="M0 0 C4.29 0 8.58 0 13 0 C13 26.73 13 53.46 13 81 C8.71 81 4.42 81 0 81 C0 54.27 0 27.54 0 0 Z " fill="#FEFEFE" transform="translate(125,142)"/>
<path d="M0 0 C4.62 0 9.24 0 14 0 C14 22.44 14 44.88 14 68 C9.38 68 4.76 68 0 68 C0 45.56 0 23.12 0 0 Z " fill="#FBFDFE" transform="translate(179,155)"/>
<path d="M0 0 C4.62 0 9.24 0 14 0 C14 22.44 14 44.88 14 68 C9.38 68 4.76 68 0 68 C0 45.56 0 23.12 0 0 Z " fill="#FBFDFD" transform="translate(88,155)"/>
<path d="M0 0 C12.21 0 24.42 0 37 0 C37 7.59 37 15.18 37 23 C24.79 23 12.58 23 0 23 C0 15.41 0 7.82 0 0 Z " fill="#4BA9B6" transform="translate(211,165)"/>
<path d="M0 0 C13.2 0 26.4 0 40 0 C40 7.59 40 15.18 40 23 C32.74 23 25.48 23 18 23 C18 20.69 18 18.38 18 16 C13.05 16 8.1 16 3 16 C3 18.31 3 20.62 3 23 C2.01 23 1.02 23 0 23 C0 15.41 0 7.82 0 0 Z " fill="#4BA9B6" transform="translate(139,165)"/>
<path d="M0 0 C3.5122876 2.27824061 5.52641184 4.51704957 7.3125 8.375 C7.96514568 12.99543474 7.93430495 16.94484862 6.0625 21.25 C0.46765904 28.04373545 0.46765904 28.04373545 -4.95703125 28.61328125 C-10.76037413 28.78265685 -14.14384729 28.36454872 -18.6875 24.375 C-22.13502992 20.45194871 -23.11455701 16.82248886 -23.02734375 11.5703125 C-22.39408993 7.47963843 -20.45072806 4.4027184 -17.6875 1.375 C-11.86498456 -2.07537952 -6.16433708 -3.14131463 0 0 Z " fill="#62D1DB" transform="translate(344.6875,205.625)"/>
<path d="M0 0 C4.62 0 9.24 0 14 0 C14 16.5 14 33 14 50 C9.38 50 4.76 50 0 50 C0 33.5 0 17 0 0 Z " fill="#F8FCFC" transform="translate(106,173)"/>
<path d="M0 0 C-3.16887304 27.16403693 -3.16887304 27.16403693 -5 38 C-11.1114014 33.65150285 -16.60171456 28.79547646 -22.08203125 23.6953125 C-25.18272719 20.83121585 -28.35336318 18.06723491 -31.57421875 15.33984375 C-33 14 -33 14 -34 12 C-23.16946859 4.31877205 -13.3308172 -0.16646182 0 0 Z " fill="#C0CDD3" transform="translate(318,37)"/>
<path d="M0 0 C4.29 0 8.58 0 13 0 C13 13.86 13 27.72 13 42 C8.71 42 4.42 42 0 42 C0 28.14 0 14.28 0 0 Z " fill="#FEFEFE" transform="translate(143,181)"/>
<path d="M0 0 C4.62 0 9.24 0 14 0 C14 11.88 14 23.76 14 36 C9.38 36 4.76 36 0 36 C0 24.12 0 12.24 0 0 Z " fill="#FAFDFD" transform="translate(52,187)"/>
<path d="M0 0 C4.62 0 9.24 0 14 0 C14 11.22 14 22.44 14 34 C9.38 34 4.76 34 0 34 C0 22.78 0 11.56 0 0 Z " fill="#F9FDFD" transform="translate(161,189)"/>
<path d="M0 0 C2.39614126 -0.05425226 4.79103853 -0.09379027 7.1875 -0.125 C8.19780273 -0.15013672 8.19780273 -0.15013672 9.22851562 -0.17578125 C13.34586785 -0.21595054 16.2606069 0.35364604 20 2 C22.23186177 2.3112078 22.23186177 2.3112078 24.4375 2.25 C25.15808594 2.25515625 25.87867187 2.2603125 26.62109375 2.265625 C29.11655123 2.08049487 29.11655123 2.08049487 31.79296875 0.9921875 C35.55167195 -0.17067561 38.98861409 -0.22291282 42.875 -0.125 C43.90753906 -0.11146484 43.90753906 -0.11146484 44.9609375 -0.09765625 C46.64077838 -0.07432513 48.32043746 -0.03846326 50 0 C47.44281621 5.87635668 42.18126628 10.30966397 36.375 12.9375 C29.04215816 15.25161182 20.17003389 15.30642695 13.0625 12.3125 C11.68564185 11.58297068 10.32957394 10.81251741 9 10 C8.3296875 9.60296875 7.659375 9.2059375 6.96875 8.796875 C3.08429385 6.28153044 1.4865079 4.30153737 0 0 Z " fill="#132A2E" transform="translate(81,115)"/>
<path d="M0 0 C5.17772746 -0.12385084 10.35458788 -0.21445571 15.53344727 -0.2746582 C17.29401676 -0.29976061 19.05448247 -0.33385028 20.81469727 -0.37719727 C23.34938179 -0.43804115 25.88268575 -0.46625113 28.41796875 -0.48828125 C29.59325386 -0.52699089 29.59325386 -0.52699089 30.7922821 -0.56648254 C35.14929593 -0.56870495 36.54140472 -0.38219346 40.03637695 2.53051758 C40.68437256 3.34544678 41.33236816 4.16037598 42 5 C34.76491566 11.52922245 29.10416701 13.6550633 19.29296875 13.41796875 C11.86635941 12.47532676 5.69847772 8.7594243 1 3 C0.67 2.01 0.34 1.02 0 0 Z " fill="#BD462B" transform="translate(403,165)"/>
<path d="M0 0 C3.12068856 1.79273598 4.54965052 3.24259405 6.375 6.3125 C7.21219504 9.91243865 6.89539601 12.41841597 6 16 C4.17660948 18.70567626 2.92542564 20.53728718 0 22 C-4.51910283 22.6326744 -8.66253178 22.77294479 -12.5 20.0625 C-15.72393818 16.11317573 -16.40343488 13.04293604 -16 8 C-12.90170997 0.49887676 -7.65165705 -1.2297306 0 0 Z " fill="#C0CDD4" transform="translate(189,64)"/>
<path d="M0 0 C5.22321429 4.82142857 5.22321429 4.82142857 6 9 C-6.02527224 17.71396539 -18.1378741 21.48728282 -33 21 C-33 17.7 -33 14.4 -33 11 C-31.77925781 10.86464844 -30.55851562 10.72929687 -29.30078125 10.58984375 C-18.98166169 9.29391524 -7.76957224 7.76957224 0 0 Z " fill="#F75532" transform="translate(347,124)"/>
<path d="M0 0 C4.62 0 9.24 0 14 0 C14 9.24 14 18.48 14 28 C9.38 28 4.76 28 0 28 C0 18.76 0 9.52 0 0 Z " fill="#FBFEFE" transform="translate(70,195)"/>
<path d="M0 0 C3.90285767 1.58667578 6.33520982 4.13350481 9.25 7.125 C10.14203125 8.03507813 11.0340625 8.94515625 11.953125 9.8828125 C12.62859375 10.58148438 13.3040625 11.28015625 14 12 C16.54805026 10.8165959 18.10512447 9.89487553 20.125 7.875 C20.74375 7.25625 21.3625 6.6375 22 6 C22.66 6 23.32 6 24 6 C25.06324979 18.01641034 25.06324979 18.01641034 22.546875 22.7109375 C20.79286018 24.75237492 19.21630376 26.47184195 17 28 C11.68379301 28 8.52346181 23.5260332 4.86083984 19.99169922 C0.48569009 15.39010918 -0.94654784 12.49926173 -0.875 6.125 C-0.4921875 2.5703125 -0.4921875 2.5703125 0 0 Z " fill="#24292B" transform="translate(424,239)"/>
<path d="M0 0 C0.91155448 6.27033731 1.45470612 11.71259524 -2.04638672 17.21777344 C-4.77446043 20.35598556 -7.83745442 23.11275249 -10.9375 25.875 C-11.99206339 26.86777827 -13.04352924 27.86385762 -14.09179688 28.86328125 C-21.65212429 36 -21.65212429 36 -23 36 C-24.52852817 30.73506964 -25.04989017 26.12929427 -23 21 C-19.92152472 16.79460272 -16.37112285 13.16268693 -12.625 9.5625 C-12.13125885 9.08680573 -11.6375177 8.61111145 -11.1288147 8.1210022 C-2.60363068 0 -2.60363068 0 0 0 Z " fill="#23282A" transform="translate(108,315)"/>
<path d="M0 0 C4.29 0 8.58 0 13 0 C13 5.94 13 11.88 13 18 C8.71 18 4.42 18 0 18 C0 12.06 0 6.12 0 0 Z " fill="#FEFEFE" transform="translate(34,205)"/>
<path d="M0 0 C1.32 0 2.64 0 4 0 C4 7.59 4 15.18 4 23 C2.68 23 1.36 23 0 23 C0 15.41 0 7.82 0 0 Z " fill="#4BA9B6" transform="translate(193,165)"/>
<path d="M0 0 C7.26 0 14.52 0 22 0 C18.22804052 3.77195948 15.79901642 4.14107334 10.625 4.25 C6.43187504 4.22227686 3.61081409 3.22203944 0 1 C0 0.67 0 0.34 0 0 Z " fill="#60CCD5" transform="translate(95,114)"/>
</svg>
