<?xml version="1.0" encoding="iso-8859-1"?>
<!-- Uploaded to: SVG Repo, www.svgrepo.com, Generator: SVG Repo Mixer Tools -->
<svg height="158px" width="158px" version="1.1" id="Layer_1" xmlns="http://www.w3.org/2000/svg" xmlns:xlink="http://www.w3.org/1999/xlink" 
	 viewBox="0 0 512 512" xml:space="preserve">
<g transform="translate(0 1)">
	<polygon style="fill:#3D83F3;" points="34.712,502.322 477.288,502.322 477.288,7.678 34.712,7.678 	"/>
	<polygon style="fill:#315ED8;" points="477.288,502.322 503.322,502.322 503.322,7.678 477.288,7.678 	"/>
	<polygon style="fill:#FFFFFF;" points="8.678,502.322 34.712,502.322 34.712,7.678 8.678,7.678 	"/>
	<path d="M512,511H0V120.492c0-5.207,3.471-8.678,8.678-8.678s8.678,3.471,8.678,8.678v373.153h477.288v-78.102
		c0-5.207,3.471-8.678,8.678-8.678c5.207,0,8.678,3.471,8.678,8.678V511z"/>
	<path d="M503.322,346.119c-5.207,0-8.678-3.471-8.678-8.678V16.356H17.356v34.712c0,5.207-3.471,8.678-8.678,8.678
		S0,56.275,0,51.068V-1h512v338.441C512,342.647,508.529,346.119,503.322,346.119z"/>
	<path d="M17.356,85.78c0-5.207-3.471-8.678-8.678-8.678S0,80.573,0,85.78c0,5.207,3.471,8.678,8.678,8.678
		S17.356,90.986,17.356,85.78"/>
	<path d="M503.322,389.508c-5.207,0-8.678-3.471-8.678-8.678v-8.678c0-5.207,3.471-8.678,8.678-8.678
		c5.207,0,8.678,3.471,8.678,8.678v8.678C512,386.037,508.529,389.508,503.322,389.508z"/>
	<path d="M182.237,389.508c-2.603,0-4.339-0.868-6.075-2.603L48.597,259.339l127.566-127.566c3.471-3.471,8.678-3.471,12.149,0
		c3.471,3.471,3.471,8.678,0,12.149L72.895,259.339l115.417,115.417c3.471,3.471,3.471,8.678,0,12.149
		C186.576,388.641,184.841,389.508,182.237,389.508z"/>
	<path d="M329.763,389.508c-2.603,0-4.339-0.868-6.075-2.603c-3.471-3.471-3.471-8.678,0-12.149l115.417-115.417L323.688,143.922
		c-3.471-3.471-3.471-8.678,0-12.149c3.471-3.471,8.678-3.471,12.149,0l127.566,127.566L335.837,386.905
		C334.102,388.641,332.366,389.508,329.763,389.508z"/>
	<path d="M216.949,441.576c-0.868,0-0.868,0-1.736,0c-4.339-0.868-7.81-6.075-6.942-10.414l78.102-355.797
		c0.868-4.339,6.075-7.81,10.414-6.942c4.339,0.868,7.81,6.075,6.942,10.414l-78.102,355.797
		C224.759,438.973,221.288,441.576,216.949,441.576z"/>
</g>
</svg>