<?xml version="1.0" encoding="UTF-8"?>
<svg version="1.1" xmlns="http://www.w3.org/2000/svg" width="512" height="512">
<path d="M0 0 C1.02445367 -0.00226556 2.04890733 -0.00453111 3.10440505 -0.00686532 C6.53581154 -0.01319344 9.96717841 -0.01237672 13.39859009 -0.0115509 C15.85937043 -0.01454311 18.32015031 -0.01794579 20.78092957 -0.02172852 C26.77058858 -0.02964804 32.76023204 -0.03278287 38.74989484 -0.03334089 C43.61953606 -0.03381651 48.48917404 -0.03587356 53.35881424 -0.03904152 C67.17256132 -0.04784488 80.98630064 -0.05246134 94.80005054 -0.05171105 C95.54429222 -0.05167109 96.28853391 -0.05163113 97.05532837 -0.05158997 C97.80048118 -0.05154909 98.545634 -0.0515082 99.3133672 -0.05146609 C111.39029931 -0.05105961 123.46720025 -0.06063035 135.54412334 -0.07472833 C147.9518903 -0.08909798 160.35964206 -0.09599821 172.76741755 -0.09513456 C179.73054167 -0.09480281 186.69363311 -0.09754012 193.65674973 -0.10831261 C200.2050203 -0.1183786 206.75323364 -0.11807625 213.30151176 -0.11079597 C215.70409305 -0.10974953 218.10667863 -0.11211654 220.50925255 -0.11815643 C223.79051078 -0.12587069 227.07153013 -0.12123511 230.3527832 -0.11352539 C231.30201578 -0.11866895 232.25124835 -0.12381252 233.22924554 -0.12911195 C241.40072419 -0.08672458 248.20106239 0.881873 254.80337524 6.13371277 C259.22621208 10.92511934 261.05105745 15.16708523 261.06064415 21.6773119 C261.06709304 22.78656995 261.07354193 23.895828 261.08018625 25.03869992 C261.07554044 26.85881409 261.07554044 26.85881409 261.07080078 28.71569824 C261.07533189 30.00881194 261.07986301 31.30192563 261.08453143 32.63422459 C261.09676698 36.22180751 261.09650032 39.80929722 261.09414268 43.39689624 C261.09373465 47.26681447 261.10477232 51.13670276 261.11425781 55.00660706 C261.13087188 62.58793506 261.13636754 70.16923197 261.13748257 77.75057665 C261.13843286 83.91315126 261.14254221 90.07571561 261.14888382 96.23828697 C261.16649743 113.71022264 261.17572252 131.18213373 261.17422287 148.65407834 C261.17414296 149.59602714 261.17406305 150.53797593 261.17398071 151.50846863 C261.17389895 152.45156752 261.17381719 153.39466641 261.17373295 154.36634406 C261.17292004 169.65076581 261.19205863 184.93508903 261.22025745 200.21948228 C261.24898316 215.91329845 261.26279791 231.60706656 261.26106989 247.3009097 C261.26040588 256.11184582 261.2659032 264.92267864 261.28742599 273.73359108 C261.30563369 281.23547044 261.30998855 288.73719967 261.29640715 296.23909155 C261.28987534 300.06595105 261.28976769 303.8925225 261.30711365 307.71935463 C261.32573391 311.87004673 261.31329551 316.02007139 261.29785156 320.17077637 C261.30813869 321.37749365 261.31842582 322.58421093 261.32902467 323.8274954 C261.26886936 331.1335791 260.57365859 337.18629957 255.35608804 342.64899427 C251.22202421 346.26921501 247.72809778 348.38024053 242.22616196 348.39377499 C240.8474165 348.40437337 240.8474165 348.40437337 239.44081759 348.41518587 C238.43460652 348.41277078 237.42839544 348.4103557 236.39169312 348.40786743 C235.31994567 348.41310411 234.24819823 348.41834079 233.14397359 348.42373616 C229.54049456 348.43877863 225.937157 348.43944225 222.33364868 348.44010925 C219.75493631 348.44772791 217.17622622 348.4561549 214.59751892 348.46533203 C207.58298016 348.48818105 200.56847165 348.49610261 193.55390072 348.50115848 C189.17309811 348.50441579 184.79230429 348.5109385 180.41150665 348.51815987 C168.2798478 348.53772613 156.1481971 348.55413003 144.01652145 348.5570364 C143.24019268 348.55722397 142.4638639 348.55741154 141.66401 348.55760479 C140.09023015 348.55797104 138.51645029 348.55833474 136.94267043 348.5586959 C136.161454 348.55887872 135.38023756 348.55906153 134.5753479 348.55924988 C133.7931767 348.55943043 133.01100551 348.55961098 132.20513216 348.559797 C119.53308955 348.56333812 106.86121693 348.59035645 94.18923327 348.62774777 C81.17583609 348.66583885 68.16252324 348.68519394 55.14906907 348.68549591 C47.84378851 348.68608032 40.5387107 348.69456166 33.23348236 348.72349358 C26.3617443 348.75058366 19.49041388 348.75190544 12.61864281 348.73583794 C10.09672611 348.73401965 7.57478657 348.74074813 5.05291939 348.75665665 C1.60913293 348.77705594 -1.83323997 348.76659949 -5.27700806 348.7484436 C-6.27429625 348.76164357 -7.27158444 348.77484354 -8.29909348 348.78844351 C-14.78414062 348.71038921 -19.22370058 347.40586204 -24.19662476 343.13371277 C-28.80583898 337.87471021 -30.3188652 333.75524509 -30.32805252 326.7416029 C-30.33189367 325.64068599 -30.33573481 324.53976908 -30.33969235 323.40549105 C-30.33882587 322.19626854 -30.33795939 320.98704604 -30.33706665 319.74118042 C-30.34003777 318.45638269 -30.34300889 317.17158496 -30.34607005 315.84785396 C-30.35413835 312.2789059 -30.35592953 308.70997795 -30.35666752 305.14102185 C-30.35851835 301.29292774 -30.36606579 297.44484406 -30.37280273 293.59675598 C-30.38638496 285.1815034 -30.39241049 276.76625559 -30.39681339 268.35099387 C-30.39957577 263.09714199 -30.40381309 257.84329194 -30.40831757 252.5894413 C-30.42050965 238.04468622 -30.43080937 223.49993262 -30.43419266 208.95517254 C-30.43441222 208.02427641 -30.43463179 207.09338029 -30.43485801 206.13427519 C-30.43507629 205.20114719 -30.43529456 204.26801918 -30.43551946 203.30661458 C-30.43596292 201.41572869 -30.43640949 199.5248428 -30.43685913 197.63395691 C-30.43708056 196.69601144 -30.43730199 195.75806596 -30.43753013 194.7916979 C-30.4414789 179.59062205 -30.45893559 164.38959412 -30.48221865 149.18853679 C-30.5059269 133.5840332 -30.51839425 117.97955366 -30.51956058 102.37503177 C-30.52047759 93.61275391 -30.52623653 84.85053849 -30.54438019 76.08827782 C-30.559774 68.62772404 -30.56490587 61.16725202 -30.55664209 53.70668539 C-30.55273313 49.90025292 -30.55367705 46.09398511 -30.56769943 42.28757286 C-30.5827635 38.16066141 -30.57457923 34.03412162 -30.56411743 29.90719604 C-30.57217384 28.7046657 -30.58023024 27.50213536 -30.58853078 26.2631647 C-30.5328184 16.8895659 -28.95642849 11.05072124 -22.19662476 4.13371277 C-15.17697488 -0.19756056 -7.9852683 -0.01296643 0 0 Z " fill="#60B7FE" transform="translate(243.19662475585938,163.8662872314453)"/>
<path d="M0 0 C1.14870071 -0.00335861 2.29740143 -0.00671722 3.48091125 -0.01017761 C7.27325526 -0.01966634 11.06555502 -0.02162964 14.85791016 -0.02270508 C17.4981793 -0.02591891 20.13844827 -0.02928308 22.77871704 -0.03279114 C28.31162809 -0.0391779 33.84452717 -0.04067445 39.37744141 -0.04003906 C45.75877301 -0.0394385 52.14002003 -0.04998953 58.52133024 -0.06578273 C64.6765371 -0.08046959 70.83170357 -0.08402618 76.98692703 -0.08342934 C79.59835785 -0.08460825 82.20978933 -0.08902503 84.82120895 -0.0967617 C88.47592918 -0.10657618 92.13043241 -0.10367769 95.78515625 -0.09765625 C97.39698036 -0.10608551 97.39698036 -0.10608551 99.04136658 -0.11468506 C107.45437616 -0.07952374 114.96657677 0.59299522 121.62549496 6.20829201 C128.46966406 13.19859916 128.09225825 23.14000577 128.02368164 32.28051758 C128.02747255 33.67786705 128.03297892 35.07521274 128.04005432 36.47254944 C128.05392325 40.23906559 128.04290134 44.00512057 128.02634311 47.77161074 C128.01241119 51.72765677 128.01896169 55.68367823 128.0224762 59.63973999 C128.02517129 66.2787004 128.01176113 72.91747928 127.98852539 79.55639648 C127.96189807 87.21708689 127.96017811 94.8774744 127.97191375 102.53819525 C127.98271418 109.93003733 127.97648814 117.32177052 127.96235847 124.71360397 C127.95662049 127.84978199 127.95666399 130.98587975 127.96142387 134.12205887 C127.96621662 137.81747975 127.95599771 141.5125713 127.93446922 145.20792961 C127.92630477 147.2006104 127.93272741 149.19333446 127.93966675 151.1860199 C127.87348043 159.20331347 127.08362932 164.97071207 122.83447266 171.89526367 C115.96720793 178.57692664 108.91313788 178.7293168 99.80712891 178.67871094 C98.55084686 178.68732651 97.29456482 178.69594208 96.00021362 178.70481873 C92.57449988 178.72720608 89.14925044 178.72439866 85.72349167 178.71549726 C82.85574403 178.71036601 79.98808202 178.71769702 77.12034321 178.72496933 C70.35212443 178.74193392 63.5841313 178.73843678 56.81591797 178.72167969 C49.84927002 178.70475366 42.88324847 178.72060668 35.91666889 178.75290257 C29.91893303 178.77964664 23.92139158 178.7868618 17.9236021 178.77838749 C14.34851354 178.77347317 10.77380181 178.77559216 7.19876099 178.796175 C3.21105161 178.8180378 -0.77547895 178.79907963 -4.76318359 178.77636719 C-5.93744904 178.78805939 -7.11171448 178.79975159 -8.32156372 178.8117981 C-15.26590937 178.7314218 -20.19453693 177.86248699 -25.47802734 173.14526367 C-30.2701448 167.6539264 -31.595828 163.47812594 -31.62519836 156.175354 C-31.63235367 154.95295013 -31.63950897 153.73054626 -31.6468811 152.47109985 C-31.64972115 151.11932399 -31.6524329 149.76754784 -31.6550293 148.41577148 C-31.66129699 146.98975459 -31.66794406 145.56373933 -31.67494202 144.13772583 C-31.69594789 139.45795827 -31.70634093 134.77819051 -31.71630859 130.09838867 C-31.7203574 128.48515557 -31.72447436 126.87192264 -31.72865868 125.25868988 C-31.74770247 117.67893516 -31.76193538 110.09919013 -31.77027065 102.51941609 C-31.78004134 93.7794636 -31.80635976 85.03976448 -31.84677154 76.29990125 C-31.87696133 69.53796593 -31.89174222 62.77610313 -31.89505166 56.01410174 C-31.89739881 51.97843596 -31.90631541 47.94304111 -31.93151283 43.90744781 C-31.95484907 40.10868763 -31.95900479 36.31037573 -31.94875145 32.51156235 C-31.94825733 31.12165457 -31.9545413 29.7317243 -31.9683075 28.34188461 C-32.04568029 20.06345778 -32.08134107 12.94857114 -26.03064442 6.63499832 C-18.14866088 -0.29318521 -10.01155246 -0.00420648 0 0 Z " fill="#FFD15B" transform="translate(39.47802734375,163.854736328125)"/>
<path d="M0 0 C1.59380241 -0.01073296 1.59380241 -0.01073296 3.21980286 -0.02168274 C4.38039719 -0.02437164 5.54099152 -0.02706055 6.73675537 -0.02983093 C7.9631926 -0.03640213 9.18962982 -0.04297333 10.45323181 -0.04974365 C14.51616664 -0.06947149 18.57906202 -0.08114156 22.64202881 -0.09111023 C24.04352589 -0.09515961 25.44502278 -0.09927659 26.84651947 -0.10346031 C33.43208492 -0.12250146 40.01763923 -0.13673467 46.6032269 -0.14507228 C54.19254644 -0.15484066 61.78157402 -0.18115397 69.37079072 -0.22157317 C75.24526023 -0.25178093 81.11964625 -0.26654556 86.99419188 -0.26985329 C90.49890731 -0.27219849 94.00331044 -0.28108909 97.5079422 -0.30631447 C101.42154682 -0.33402956 105.33477031 -0.32974978 109.24847412 -0.32279968 C110.97722023 -0.34201477 110.97722023 -0.34201477 112.7408905 -0.36161804 C120.4134855 -0.31200323 125.75912223 0.77145803 131.77484131 5.85810852 C132.22085693 6.40724915 132.66687256 6.95638977 133.12640381 7.52217102 C133.81863037 8.33814758 133.81863037 8.33814758 134.52484131 9.17060852 C137.71249817 14.30740588 138.04551136 19.51393714 138.02606201 25.41230774 C138.03117294 26.21963348 138.03628387 27.02695923 138.04154968 27.85874939 C138.0553951 30.5148622 138.05449262 33.17071402 138.05218506 35.82685852 C138.05607499 37.68241979 138.06041027 39.53798018 138.06517029 41.39353943 C138.07262181 45.27873117 138.07234913 49.16383202 138.06707764 53.04902649 C138.06128687 58.01425373 138.07820972 62.97910747 138.10142231 67.94427299 C138.11619442 71.77570247 138.11702658 75.60704273 138.11391258 79.43849564 C138.11442412 81.26842615 138.11963036 83.09836187 138.1297245 84.92826462 C138.14213817 87.49350097 138.13526788 90.05801934 138.12371826 92.62324524 C138.131362 93.3705188 138.13900574 94.11779236 138.1468811 94.88771057 C138.07441615 102.21358939 136.05380391 108.84477092 130.75140381 114.14717102 C124.40471942 118.84433853 118.78369715 118.72308341 111.05828857 118.68061829 C109.79239899 118.68923386 108.5265094 118.69784943 107.22225952 118.70672607 C103.76549735 118.72914416 100.30919466 118.72629837 96.85238767 118.7174046 C93.95983712 118.71227825 91.06737168 118.71960061 88.1748299 118.72687668 C81.34765776 118.74385173 74.52070926 118.74033434 67.69354248 118.72358704 C60.66500126 118.70666801 53.63708122 118.72250204 46.60860783 118.75480992 C40.55993752 118.7815541 34.51146001 118.78876888 28.46273655 118.78029484 C24.85633518 118.77537956 21.25030738 118.77750447 17.64395332 118.79808235 C13.62021573 118.81994476 9.59764648 118.80098681 5.57391357 118.77827454 C4.38872635 118.78996674 3.20353912 118.80165894 1.98243713 118.81370544 C-5.05488169 118.73298103 -9.83195296 117.80166733 -15.24859619 113.14717102 C-20.61509951 107.49822016 -21.54794962 102.3451528 -21.53912354 94.73603821 C-21.54584076 93.90120407 -21.55255798 93.06636993 -21.55947876 92.20623779 C-21.57844275 89.45211293 -21.58238244 86.69823208 -21.58453369 83.94404602 C-21.59096378 82.02219036 -21.5976923 80.10033568 -21.60470581 78.17848206 C-21.61667533 74.15028109 -21.62038707 70.12216585 -21.61920166 66.09394836 C-21.61899873 60.94822621 -21.64627526 55.80305797 -21.68074608 50.65746689 C-21.70305649 46.68702197 -21.7070379 42.71670936 -21.70598221 38.74620819 C-21.70833291 36.85010626 -21.71712638 34.95400038 -21.73264694 33.05796051 C-21.75238673 30.39688115 -21.74643753 27.73698299 -21.73443604 25.07588196 C-21.74567505 24.30258041 -21.75691406 23.52927887 -21.76849365 22.73254395 C-21.69299444 16.09808468 -19.82670963 9.92669958 -15.24859619 4.99092102 C-14.58859619 4.54748352 -13.92859619 4.10404602 -13.24859619 3.64717102 C-12.25859619 2.95107727 -12.25859619 2.95107727 -11.24859619 2.24092102 C-7.56600739 0.22700527 -4.15145618 0.01923237 0 0 Z " fill="#05E39C" transform="translate(29.24859619140625,393.8528289794922)"/>
<path d="M0 0 C1.74344038 -0.02038891 3.48695055 -0.03485961 5.23046875 -0.046875 C6.20137451 -0.05557617 7.17228027 -0.06427734 8.17260742 -0.07324219 C14.70983441 0.0961014 19.8266623 1.88484501 25 6 C29.42283683 10.79140657 31.24768221 15.03337246 31.25726891 21.54359913 C31.2637178 22.65285718 31.27016669 23.76211523 31.276811 24.90498716 C31.2721652 26.72510132 31.2721652 26.72510132 31.26742554 28.58198547 C31.27195665 29.87509917 31.27648776 31.16821287 31.28115618 32.50051183 C31.29339174 36.08809474 31.29312507 39.67558445 31.29076743 43.26318347 C31.2903594 47.13310171 31.30139707 51.00299 31.31088257 54.87289429 C31.32749664 62.45422229 31.3329923 70.0355192 31.33410732 77.61686388 C31.33505762 83.77943849 31.33916697 89.94200284 31.34550858 96.1045742 C31.36312218 113.57650987 31.37234727 131.04842096 31.37084763 148.52036557 C31.37076772 149.46231437 31.3706878 150.40426316 31.37060547 151.37475586 C31.37052371 152.31785475 31.37044195 153.26095364 31.37035771 154.23263129 C31.3695448 169.51705305 31.38868338 184.80137626 31.4168822 200.08576951 C31.44560791 215.77958569 31.45942267 231.4733538 31.45769465 247.16719693 C31.45703063 255.97813305 31.46252796 264.78896587 31.48405075 273.59987831 C31.50225845 281.10175767 31.50661331 288.6034869 31.4930319 296.10537878 C31.4865001 299.93223828 31.48639244 303.75880973 31.5037384 307.58564186 C31.52235866 311.73633396 31.50992026 315.88635862 31.49447632 320.0370636 C31.50476344 321.24378088 31.51505057 322.45049816 31.52564943 323.69378263 C31.46549412 330.99986634 30.77028335 337.0525868 25.5527128 342.5152815 C21.41864897 346.13550224 17.92472254 348.24652777 12.42278671 348.26006222 C11.04404125 348.2706606 11.04404125 348.2706606 9.63744235 348.2814731 C8.63123127 348.27905802 7.62502019 348.27664293 6.58831787 348.27415466 C5.51657043 348.27939134 4.44482298 348.28462802 3.34059834 348.29002339 C-0.26288068 348.30506586 -3.86621825 348.30572948 -7.46972656 348.30639648 C-10.04843893 348.31401514 -12.62714903 348.32244213 -15.20585632 348.33161926 C-22.22039509 348.35446828 -29.23490359 348.36238985 -36.24947453 348.36744571 C-40.63027713 348.37070302 -45.01107095 348.37722573 -49.39186859 348.3844471 C-61.52352745 348.40401336 -73.65517814 348.42041726 -85.78685379 348.42332363 C-86.56318257 348.4235112 -87.33951135 348.42369877 -88.13936524 348.42389202 C-89.7131451 348.42425827 -91.28692495 348.42462197 -92.86070481 348.42498314 C-93.64192125 348.42516595 -94.42313768 348.42534876 -95.22802734 348.42553711 C-96.01019854 348.42571766 -96.79236973 348.42589821 -97.59824309 348.42608423 C-110.2702857 348.42962535 -122.94215831 348.45664368 -135.61414197 348.494035 C-148.62753915 348.53212608 -161.64085201 348.55148117 -174.65430617 348.55178314 C-181.95958673 348.55236756 -189.26466454 348.56084889 -196.56989288 348.58978081 C-203.44163095 348.61687089 -210.31296137 348.61819267 -217.18473244 348.60212517 C-219.70664914 348.60030688 -222.22858868 348.60703537 -224.75045586 348.62294388 C-228.19424231 348.64334317 -231.63661522 348.63288672 -235.0803833 348.61473083 C-236.07767149 348.6279308 -237.07495968 348.64113077 -238.10246873 348.65473074 C-244.58751587 348.57667644 -249.02707582 347.27214927 -254 343 C-259.21511989 337.04967365 -260.1359258 332.67998633 -260.0625 324.75 C-260.05347656 323.48671875 -260.04445313 322.2234375 -260.03515625 320.921875 C-260.02355469 319.95765625 -260.01195312 318.9934375 -260 318 C-258.75078546 317.99853344 -257.50157091 317.99706688 -256.21450138 317.99555588 C-226.54530224 317.95983611 -196.87621943 317.90356931 -167.20711401 317.82207905 C-163.55352237 317.81206187 -159.89993029 317.80221769 -156.24633789 317.79248047 C-155.51898868 317.7905391 -154.79163947 317.78859772 -154.04224937 317.78659752 C-142.27278933 317.75559591 -130.50334878 317.73860201 -118.73385561 317.72680578 C-106.65279406 317.71438467 -94.5718346 317.68686165 -82.49083751 317.64538693 C-75.70698705 317.62252908 -68.92326839 317.60659709 -62.13937569 317.60811615 C-55.75275567 317.60886146 -49.36645798 317.59096185 -42.97992134 317.55883217 C-40.63744578 317.5503212 -38.29493411 317.54859132 -35.9524498 317.55419731 C-32.74974871 317.56084036 -29.54807222 317.54290789 -26.34547424 317.51898193 C-25.42229843 317.52674235 -24.49912262 317.53450277 -23.54797179 317.54249835 C-17.39912496 317.46139215 -12.25621891 316.31918504 -7 313 C-2.29895172 308.02794438 -0.88104494 303.5829143 -0.8613348 296.79136276 C-0.85586036 295.7314131 -0.85038591 294.67146345 -0.84474558 293.5793941 C-0.84376747 292.41597908 -0.84278936 291.25256406 -0.84178162 290.05389404 C-0.83437465 288.19891827 -0.83437465 288.19891827 -0.82681805 286.30646825 C-0.81410052 282.87222155 -0.80581887 279.43801546 -0.79939139 276.00375462 C-0.79138704 272.3009837 -0.77768938 268.59823339 -0.76467896 264.89547729 C-0.74291672 258.47962845 -0.7247713 252.06377751 -0.70907402 245.64791107 C-0.68637311 236.37161587 -0.65823058 227.09534348 -0.62875474 217.81906763 C-0.58108156 202.76936244 -0.53781663 187.71964794 -0.49731445 172.66992188 C-0.45795814 158.04947179 -0.41653158 143.42902998 -0.37231445 128.80859375 C-0.36822804 127.45706109 -0.36822804 127.45706109 -0.36405908 126.07822475 C-0.35037958 121.55811766 -0.33665931 117.0380107 -0.32291877 112.5179038 C-0.20895829 75.01195308 -0.10214798 37.50598467 0 0 Z " fill="#26A6FE" transform="translate(473,164)"/>
<path d="M0 0 C1.22396484 0.62841797 1.22396484 0.62841797 2.47265625 1.26953125 C13.42357246 7.29166742 22.65699103 16.2543884 29 27 C29.53238281 27.90105469 30.06476563 28.80210937 30.61328125 29.73046875 C39.47174076 46.01860397 41.76052412 64.85304231 37.4375 82.875 C33.78929442 94.66446433 28.26006135 104.81109641 20 114 C19.48179687 114.61101562 18.96359375 115.22203125 18.4296875 115.8515625 C7.62107301 127.74646991 -9.54383307 135.78159694 -25.44555664 137.22143555 C-46.55129728 138.18818937 -65.35594948 133.41244926 -81.5168457 119.24853516 C-95.89898005 106.11248225 -105.03038861 88.03740598 -106.375 68.51953125 C-107.17388471 49.03839469 -100.28269956 30.09922331 -87.390625 15.453125 C-64.66621718 -7.86538499 -29.28683399 -15.94556172 0 0 Z " fill="#FCFCFC" transform="translate(392,228)"/>
<path d="M0 0 C3.47850931 -0.17648219 6.95584849 -0.28156271 10.4375 -0.375 C11.41138672 -0.42527344 12.38527344 -0.47554687 13.38867188 -0.52734375 C20.76220952 -0.67530772 25.51783457 0.98239974 31 6 C35.09844462 11.26667617 36.12180724 16.33813906 36.14044189 22.85601807 C36.14615204 24.05317947 36.15186218 25.25034088 36.15774536 26.48377991 C36.15942215 28.44908913 36.15942215 28.44908913 36.16113281 30.45410156 C36.16576317 31.85056183 36.17078813 33.24702085 36.17617798 34.64347839 C36.18928393 38.4349796 36.19574353 42.22646312 36.20018864 46.01798344 C36.20312258 48.38866729 36.20722802 50.75934634 36.21169281 53.13002777 C36.22536365 60.55280829 36.23503205 67.97557779 36.2388947 75.39837003 C36.24337309 83.95659618 36.26091246 92.51466243 36.2898953 101.07283998 C36.31153922 107.69465022 36.32160044 114.31641557 36.32293582 120.93826079 C36.32398201 124.89003765 36.32984986 128.84166412 36.34775543 132.79340363 C36.36428289 136.51331729 36.36636913 140.23296827 36.35761642 143.95290565 C36.35648387 145.95999187 36.37016548 147.96706955 36.3843689 149.97410583 C36.34723477 158.03177471 35.58251006 163.79146508 31.3125 170.75 C24.44523528 177.43166297 17.39116523 177.58405313 8.28515625 177.53344727 C7.02887421 177.54206284 5.77259216 177.55067841 4.47824097 177.55955505 C1.05252722 177.58194241 -2.37272221 177.57913499 -5.79848099 177.57023358 C-8.66622863 177.56510234 -11.53389064 177.57243335 -14.40162945 177.57970566 C-21.16984823 177.59667025 -27.93784135 177.59317311 -34.70605469 177.57641602 C-41.67270263 177.55948998 -48.63872419 177.57534301 -55.60530376 177.6076389 C-61.60303963 177.63438297 -67.60058108 177.64159812 -73.59837055 177.63312382 C-77.17345912 177.6282095 -80.74817085 177.63032849 -84.32321167 177.65091133 C-88.31092105 177.67277413 -92.2974516 177.65381596 -96.28515625 177.63110352 C-97.45942169 177.64279572 -98.63368713 177.65448792 -99.84353638 177.66653442 C-106.78788202 177.58615813 -111.71650958 176.71722332 -117 172 C-122.2993765 165.92738932 -123.16105165 161.27058828 -123.0625 153.25 C-123.05798828 152.55261719 -123.05347656 151.85523438 -123.04882812 151.13671875 C-123.0371002 149.42444197 -123.01916653 147.71220967 -123 146 C-122.44469573 145.99853344 -121.88939146 145.99706688 -121.31725979 145.99555588 C-107.78708158 145.95845664 -94.25715636 145.89914948 -80.72717953 145.81609726 C-74.18407633 145.77660134 -67.64110814 145.744423 -61.09790039 145.72900391 C-54.78241463 145.71385162 -48.46730001 145.6794305 -42.15197945 145.63169098 C-39.74350779 145.61686262 -37.33498315 145.60895816 -34.92646599 145.60811615 C-31.55075463 145.60574925 -28.17607118 145.57868969 -24.80053711 145.54589844 C-23.30944176 145.55344398 -23.30944176 145.55344398 -21.78822327 145.56114197 C-14.24602733 145.44791683 -9.46769568 143.51608698 -3.8125 138.375 C-1.50740023 136.42847131 0.33631833 135.2825134 3 134 C4.42041821 131.15916359 4.31452272 129.14522722 4 126 C3.34451172 125.3920459 2.68902344 124.7840918 2.01367188 124.15771484 C-0.54427849 121.41678792 -0.51436138 120.05077419 -0.53125 116.3515625 C-0.53898437 114.71960938 -0.53898437 114.71960938 -0.546875 113.0546875 C-0.53140625 111.92289062 -0.5159375 110.79109375 -0.5 109.625 C-0.52320313 107.93890625 -0.52320313 107.93890625 -0.546875 106.21875 C-0.51627161 99.74613364 -0.15040831 96.00156626 4 91 C4.66790364 87.8715965 4.66790364 87.8715965 4 85 C3.34064453 84.57195068 2.68128906 84.14390137 2.00195312 83.70288086 C0 82 0 82 -0.51757812 79.24438477 C-0.52208984 78.15440186 -0.52660156 77.06441895 -0.53125 75.94140625 C-0.53898437 74.15573242 -0.53898437 74.15573242 -0.546875 72.33398438 C-0.53140625 71.08939453 -0.5159375 69.84480469 -0.5 68.5625 C-0.52320313 66.70141602 -0.52320313 66.70141602 -0.546875 64.80273438 C-0.54171875 63.61099609 -0.5365625 62.41925781 -0.53125 61.19140625 C-0.52673828 60.10029541 -0.52222656 59.00918457 -0.51757812 57.88500977 C0.11477978 54.360211 1.39338927 53.34894356 4 51 C4.66666667 48 4.66666667 48 4 45 C3.33774414 44.47116211 2.67548828 43.94232422 1.99316406 43.39746094 C-1.05531961 39.73061752 -0.49954049 36.26299832 -0.390625 31.640625 C-0.38496521 30.73624695 -0.37930542 29.8318689 -0.37347412 28.90008545 C-0.35111248 26.01618147 -0.30091686 23.13352739 -0.25 20.25 C-0.22993471 18.29298671 -0.21168399 16.33595392 -0.1953125 14.37890625 C-0.15124839 9.58545711 -0.08222252 4.79294035 0 0 Z " fill="#FFC344" transform="translate(131,165)"/>
<path d="M0 0 C1.18308243 -0.00708481 2.36616486 -0.01416962 3.58509827 -0.02146912 C4.86941238 -0.0189917 6.1537265 -0.01651428 7.47695923 -0.01396179 C8.8540118 -0.0183128 10.23106194 -0.02349725 11.60810852 -0.02944946 C15.33753769 -0.04280972 19.06686533 -0.0434214 22.79631376 -0.04088616 C25.91495595 -0.03981431 29.03357778 -0.04470535 32.1522156 -0.04949158 C39.51292046 -0.06057674 46.87357428 -0.06102993 54.23428345 -0.05497742 C61.81534681 -0.04893932 69.39622449 -0.06124667 76.97725618 -0.08254749 C83.49720545 -0.10019001 90.01709576 -0.10616063 96.53706801 -0.10290974 C100.4262056 -0.10110078 104.31521076 -0.10369419 108.20432663 -0.11762428 C111.86354726 -0.13024109 115.52247951 -0.12822244 119.18169594 -0.11521339 C121.15535363 -0.11173728 123.12902029 -0.12299749 125.10264587 -0.13478088 C134.21185754 -0.08103 141.47895287 1.01601545 148.37002563 7.40132141 C153.01516129 12.76803154 155.80231867 18.88342329 155.33486938 26.03413391 C154.22972746 32.95645144 152.13609241 38.32820863 146.97940063 43.26069641 C140.76900361 47.36022504 135.7477795 49.37625541 128.28869629 49.40786743 C127.12808182 49.41502274 125.96746735 49.42217804 124.77168274 49.42955017 C123.50202164 49.43223907 122.23236053 49.43492798 120.92422485 49.43769836 C119.57041755 49.44396661 118.21661196 49.45061373 116.86280823 49.45761108 C112.41991363 49.47861575 107.97701884 49.48901196 103.53408813 49.49897766 C102.00138456 49.50302694 100.46868115 49.50714391 98.93597794 49.51132774 C91.73211018 49.53037366 84.52825262 49.54460442 77.32436454 49.55293971 C69.02532974 49.56270208 60.72656236 49.58899777 52.42762172 49.62944061 C46.00280727 49.65966908 39.57806916 49.67441505 33.15318501 49.67772073 C29.32089363 49.68006406 25.48888813 49.68893006 21.65667343 49.7141819 C18.04667875 49.73758525 14.43715566 49.74164727 10.82710457 49.73142052 C8.88479171 49.73069471 6.94250214 49.74970055 5.00028992 49.76948547 C-4.39324246 49.71409259 -13.12849702 48.15279876 -20.02059937 41.26069641 C-24.97705023 34.74650384 -27.11919279 28.39296727 -26.02059937 20.26069641 C-23.48090112 12.20959115 -19.3856174 6.53240687 -12.02059937 2.26069641 C-7.87830438 0.64877503 -4.4348117 0.00889192 0 0 Z " fill="#FCC246" transform="translate(294.0205993652344,410.7393035888672)"/>
<path d="M0 0 C0.84982674 -0.00350607 1.69965347 -0.00701215 2.57523254 -0.01062447 C5.44815823 -0.01999395 8.32088367 -0.01500093 11.19381809 -0.01015663 C13.26420796 -0.01389009 15.33459642 -0.01849039 17.40498263 -0.02388728 C23.11408821 -0.03617016 28.82313544 -0.03585062 34.53225124 -0.03349853 C40.68162598 -0.03309169 46.83098168 -0.04411663 52.98034763 -0.05361366 C65.03507635 -0.0702532 77.08978017 -0.07575039 89.14451735 -0.07683842 C98.93846597 -0.07775663 108.73240824 -0.08186872 118.52635479 -0.08823967 C121.3429823 -0.09003468 124.15960983 -0.09181431 126.97623736 -0.09358943 C127.67640723 -0.09403152 128.37657711 -0.09447362 129.09796426 -0.09492911 C148.79839962 -0.10724136 168.49883278 -0.11512984 188.19927216 -0.11424255 C188.94236908 -0.1142114 189.68546601 -0.11418024 190.45108103 -0.11414814 C194.21762444 -0.11398192 197.98416785 -0.11378383 201.75071125 -0.11357872 C202.49879516 -0.11353883 203.24687906 -0.11349894 204.01763217 -0.11345784 C205.53044037 -0.11337697 207.04324856 -0.11329337 208.55605675 -0.11320706 C232.09993177 -0.11198118 255.64374922 -0.12699988 279.18760777 -0.15435219 C305.62281922 -0.18505071 332.05799284 -0.20228606 358.49322325 -0.20042574 C361.31016513 -0.20027648 364.127107 -0.20017907 366.94404888 -0.20011711 C367.9844974 -0.20008215 367.9844974 -0.20008215 369.04596509 -0.20004648 C380.22441553 -0.19998485 391.40281613 -0.21277456 402.58125173 -0.22998164 C413.80881425 -0.24690733 425.03630438 -0.24859187 436.26387899 -0.235763 C442.35038734 -0.22920739 448.43671437 -0.22920926 454.52320576 -0.2464695 C460.08886237 -0.26209099 465.65419225 -0.25944929 471.21984036 -0.24190123 C473.23932538 -0.23880711 475.25883415 -0.24255337 477.27829122 -0.25362138 C480.01205599 -0.26761859 482.74465488 -0.25725463 485.4783783 -0.24050903 C486.27239411 -0.25044539 487.06640992 -0.26038175 487.88448682 -0.27061921 C491.44814083 -0.2240945 493.40853143 -0.04762966 496.26765543 2.16728628 C497.88177973 4.36578237 498.63745969 5.54054347 498.80210972 8.25726891 C498.05169774 11.05425902 497.24697131 12.79406944 495.23801035 14.88584286 C491.74533264 16.85224047 488.41758888 16.67085792 484.51519966 16.63758564 C483.66789542 16.64224556 482.82059119 16.64690548 481.94761106 16.65170661 C479.08918691 16.66372175 476.23123238 16.65423613 473.37280369 16.64494896 C471.31051179 16.64911902 469.24822218 16.65459473 467.18593687 16.66126877 C461.50379506 16.67578505 455.82179752 16.67145941 450.1396476 16.66410196 C444.01753332 16.65938784 437.89545105 16.67186452 431.7733469 16.68211937 C420.46804884 16.69835056 409.16280916 16.70074551 397.85750613 16.69581438 C387.41376148 16.69126116 376.97003403 16.69185142 366.52628994 16.69765472 C365.12659797 16.69841158 363.72690601 16.69916756 362.32721404 16.69992267 C360.21812936 16.70106783 358.10904467 16.70221771 355.99996 16.70338191 C336.38561565 16.71409059 316.77127703 16.71880838 297.15693092 16.71091175 C296.41719095 16.71061458 295.67745098 16.7103174 294.91529464 16.71001123 C288.90768311 16.70756217 282.90007164 16.70495064 276.89246019 16.70232709 C253.45582201 16.69222364 230.01925548 16.70058043 206.5826273 16.72382164 C180.26385776 16.7498786 153.94513136 16.76274637 127.62634844 16.75563389 C124.82148072 16.7549178 122.01661299 16.75424342 119.21174526 16.75359344 C118.17576708 16.75333873 118.17576708 16.75333873 117.11886004 16.75307887 C106.68137717 16.75077338 96.24393428 16.75876479 85.80646038 16.77188492 C73.93983263 16.78677473 62.07330206 16.78729258 50.20666821 16.76981401 C44.14838599 16.7612701 38.09028319 16.75923689 32.03201008 16.77446556 C26.49100693 16.78822192 20.95033844 16.78366686 15.4093551 16.76422632 C13.39997874 16.76043804 11.39057615 16.76346877 9.38122297 16.77383798 C6.6586934 16.78689341 3.93733863 16.77552741 1.21486092 16.75784016 C0.03301952 16.77231592 0.03301952 16.77231592 -1.17269745 16.78708413 C-4.8766666 16.73736372 -7.00565279 16.37900074 -10.16509348 14.37832695 C-12.54700971 11.8929912 -13.11433334 10.68310354 -13.19789028 7.25726891 C-11.16251877 -0.03614568 -6.73849927 -0.0347828 0 0 Z " fill="#8AC9FE" transform="translate(13.197890281677246,107.74273109436035)"/>
<path d="M0 0 C3.16634636 -0.11760715 6.33212074 -0.18771024 9.5 -0.25 C10.386875 -0.28351563 11.27375 -0.31703125 12.1875 -0.3515625 C19.32133994 -0.45647191 24.53301498 1.06845668 30.0234375 5.7109375 C30.46945313 6.26007813 30.91546875 6.80921875 31.375 7.375 C32.06722656 8.19097656 32.06722656 8.19097656 32.7734375 9.0234375 C35.96109436 14.16023486 36.29410755 19.36676612 36.2746582 25.26513672 C36.27976913 26.07246246 36.28488007 26.87978821 36.29014587 27.71157837 C36.30399129 30.36769117 36.30308881 33.023543 36.30078125 35.6796875 C36.30467118 37.53524877 36.30900646 39.39080916 36.31376648 41.24636841 C36.321218 45.13156015 36.32094532 49.016661 36.31567383 52.90185547 C36.30988306 57.86708271 36.32680591 62.83193645 36.3500185 67.79710197 C36.36479061 71.62853145 36.36562277 75.45987171 36.36250877 79.29132462 C36.36302032 81.12125513 36.36822656 82.95119085 36.37832069 84.7810936 C36.39073436 87.34632995 36.38386407 89.91084832 36.37231445 92.47607422 C36.37995819 93.22334778 36.38760193 93.97062134 36.39547729 94.74053955 C36.32301234 102.06641837 34.3024001 108.6975999 29 114 C22.65331561 118.69716751 17.03229334 118.57591239 9.30688477 118.53344727 C8.04099518 118.54206284 6.77510559 118.55067841 5.47085571 118.55955505 C2.01409354 118.58197314 -1.44220914 118.57912735 -4.89901614 118.57023358 C-7.79156669 118.56510723 -10.68403213 118.57242959 -13.57657391 118.57970566 C-20.40374605 118.59668071 -27.23069455 118.59316332 -34.05786133 118.57641602 C-41.08640255 118.55949699 -48.11432259 118.57533102 -55.14279598 118.6076389 C-61.19146629 118.63438307 -67.2399438 118.64159786 -73.28866726 118.63312382 C-76.89506863 118.62820854 -80.50109643 118.63033345 -84.10745049 118.65091133 C-88.13118808 118.67277374 -92.15375733 118.65381579 -96.17749023 118.63110352 C-97.36267746 118.64279572 -98.54786469 118.65448792 -99.76896667 118.66653442 C-106.8062855 118.58581001 -111.58335677 117.65449631 -117 113 C-122.21050241 107.51526062 -123.30957403 102.6059563 -123.125 95.1875 C-123.11597656 94.49462891 -123.10695313 93.80175781 -123.09765625 93.08789062 C-123.07426157 91.39177605 -123.03839641 89.69584129 -123 88 C-121.68978882 87.99413376 -120.37957764 87.98826752 -119.02966309 87.98222351 C-106.67047266 87.92496249 -94.3114576 87.85218286 -81.95244598 87.76428509 C-75.59884413 87.71959474 -69.2453062 87.68033539 -62.89160156 87.65356445 C-56.75770502 87.62751857 -50.62405465 87.58710637 -44.49031067 87.53681374 C-42.15244107 87.52015385 -39.81452889 87.50863412 -37.47660828 87.50238609 C-34.19703482 87.49273578 -30.91808994 87.46466404 -27.63867188 87.43237305 C-26.19504776 87.43452568 -26.19504776 87.43452568 -24.72225952 87.4367218 C-17.60296008 87.33785919 -11.90554713 86.3244377 -6.1875 81.75 C-1.83383751 76.2768243 -0.6283605 71.50742523 -0.56762695 64.59594727 C-0.5574353 63.892668 -0.54724365 63.18938873 -0.53674316 62.46479797 C-0.50680981 60.16525097 -0.49737791 57.86612181 -0.48828125 55.56640625 C-0.47141989 53.96213925 -0.45326769 52.35788535 -0.43388367 50.75364685 C-0.38653548 46.55010063 -0.35662829 42.34660752 -0.33044434 38.1428833 C-0.30056183 33.84579993 -0.25405806 29.54889925 -0.20898438 25.25195312 C-0.12312416 16.83472551 -0.05570248 8.41748098 0 0 Z " fill="#0DD290" transform="translate(131,394)"/>
<path d="M0 0 C1.9032605 -0.00043808 1.9032605 -0.00043808 3.8449707 -0.00088501 C7.31150418 -0.00145723 10.77789835 0.01027585 14.24439955 0.02426291 C17.87187965 0.03679207 21.49936317 0.03794249 25.12686157 0.04031372 C31.99030691 0.04652208 38.85368829 0.06292414 45.71710551 0.0830127 C53.53329007 0.10539179 61.34947773 0.11637018 69.16568637 0.12640357 C85.23891294 0.14729096 101.31207525 0.18245437 117.38525391 0.22705078 C117.41129889 1.66746551 117.42988274 3.10801644 117.4453125 4.54858398 C117.45646088 5.35076859 117.46760925 6.15295319 117.47909546 6.97944641 C117.27295817 11.91665231 114.52373515 15.58912557 111.38525391 19.22705078 C105.67406095 23.60120476 100.3354111 26.35429298 93.08918762 26.3473053 C91.9912236 26.34867996 90.89325958 26.35005463 89.76202393 26.35147095 C88.55721375 26.34787567 87.35240356 26.3442804 86.11108398 26.34057617 C84.84268173 26.3407222 83.57427948 26.34086823 82.2674408 26.34101868 C78.78837643 26.34130589 75.30934645 26.33542135 71.83029008 26.32844472 C68.1947791 26.32219863 64.55926735 26.32160639 60.92375183 26.32041931 C54.03898008 26.31730971 47.15422419 26.3091013 40.26945943 26.29906982 C32.43157261 26.28789719 24.59368505 26.28239533 16.75579226 26.27737439 C0.63227019 26.26691839 -15.49123593 26.24932611 -31.61474609 26.22705078 C-31.94474609 27.21705078 -32.27474609 28.20705078 -32.61474609 29.22705078 C-33.14560113 20.8660839 -31.37174682 15.36255187 -26.73974609 8.41455078 C-18.84773224 0.29041887 -10.69232304 -0.0643904 0 0 Z " fill="#FCD05D" transform="translate(300.61474609375,410.77294921875)"/>
<path d="M0 0 C0.66 -0.00128906 1.32 -0.00257812 2 -0.00390625 C5.10338164 0.87498113 6.08269434 1.92399244 8 4.5625 C8.58811716 8.05693092 8.50910883 11.52265428 8.46875 15.05859375 C8.47579956 16.0842897 8.48284912 17.10998566 8.4901123 18.16676331 C8.51963284 22.55279398 8.50296258 26.93838235 8.49072266 31.32446289 C8.48834331 34.52777725 8.5092549 37.73036901 8.53125 40.93359375 C8.51993042 41.92330673 8.50861084 42.91301971 8.49694824 43.932724 C8.52925 48.33438759 8.55114543 50.8419012 10.91992188 54.64477539 C14.78031462 58.20385814 17.59206097 59.02324841 22.96875 58.8828125 C26.35429158 58.34893864 28.44180448 56.75523902 31 54.5625 C32.82740844 51.61424284 33.24992678 49.39281085 33.25537109 45.94921875 C33.26580948 44.5876062 33.26580948 44.5876062 33.27645874 43.19848633 C33.27546173 42.22548584 33.27446472 41.25248535 33.2734375 40.25 C33.29372057 38.18489036 33.31457123 36.11978622 33.3359375 34.0546875 C33.35857093 30.80236143 33.37502198 27.55025287 33.38085938 24.29785156 C33.39036421 21.15650252 33.42411067 18.01613076 33.4609375 14.875 C33.45589203 13.90199951 33.45084656 12.92899902 33.44564819 11.92651367 C33.54411432 5.18745277 33.54411432 5.18745277 35.90649414 1.94897461 C39.4764774 -0.41533267 41.78286781 0.09392976 46 0.5625 C48.67431489 2.37413267 48.95920359 3.44011077 50 6.5625 C50.10067813 7.99755714 50.14825278 9.4367174 50.16113281 10.87524414 C50.17074036 11.74367447 50.1803479 12.6121048 50.19024658 13.5068512 C50.19449646 14.44431686 50.19874634 15.38178253 50.203125 16.34765625 C50.20882507 17.31851669 50.21452515 18.28937714 50.22039795 19.28965759 C50.22984948 21.34828604 50.23638254 23.40692963 50.24023438 25.46557617 C50.24988766 28.58865521 50.28088797 31.71106127 50.3125 34.83398438 C50.31903566 36.83853778 50.32428392 38.84309587 50.328125 40.84765625 C50.3404718 41.7709523 50.3528186 42.69424835 50.36553955 43.64552307 C50.33421764 52.93945797 48.55072513 60.97094859 42.03515625 67.8046875 C34.42971417 74.37368738 27.14907135 75.94587887 17.3203125 75.8359375 C8.94148722 75.14591659 2.60852719 70.62783031 -3 64.5625 C-6.63108206 59.54614964 -8.10422959 54.90795949 -8.17700195 48.78149414 C-8.19625481 47.36466087 -8.19625481 47.36466087 -8.21589661 45.91920471 C-8.22328354 44.90559372 -8.23067047 43.89198273 -8.23828125 42.84765625 C-8.246353 41.79976425 -8.25442474 40.75187225 -8.26274109 39.67222595 C-8.27655983 37.45736333 -8.28729184 35.24247962 -8.29516602 33.02758789 C-8.31241833 29.64103083 -8.35632959 26.25544028 -8.40039062 22.86914062 C-8.41051463 20.716153 -8.41903164 18.5631571 -8.42578125 16.41015625 C-8.44328934 15.39856949 -8.46079742 14.38698273 -8.47883606 13.34474182 C-8.46507769 8.88785818 -8.44692049 6.30015693 -6.09838867 2.42382812 C-3.83485968 0.41601602 -2.97938053 -0.09892474 0 0 Z " fill="#5FB7FF" transform="translate(174,-0.5625)"/>
<path d="M0 0 C1.17369141 -0.02513672 1.17369141 -0.02513672 2.37109375 -0.05078125 C5.12423699 0.40562218 5.8449428 1.14611111 7.5625 3.3125 C7.94776917 5.34126282 7.94776917 5.34126282 7.96313477 7.6887207 C7.97647354 8.5700618 7.98981232 9.45140289 8.0035553 10.35945129 C8.00367111 11.30946518 8.00378693 12.25947906 8.00390625 13.23828125 C8.01711411 14.21862839 8.03032196 15.19897552 8.04393005 16.20903015 C8.08487695 19.34771526 8.1065006 22.48610804 8.125 25.625 C8.14882344 28.75308964 8.17704013 31.88090525 8.21678162 35.00883484 C8.24103583 36.95536277 8.25597786 38.90203508 8.26039124 40.84870911 C8.31577979 45.69231897 8.51061912 49.82584301 10.5625 54.3125 C13.73440599 57.18231971 16.32855603 58.56916989 20.5625 58.8125 C24.75871129 58.59545459 27.3305908 57.00575767 30.5625 54.3125 C32.68028327 51.13582509 32.81226388 50.35659725 32.81787109 46.72094727 C32.82483002 45.79310928 32.83178894 44.8652713 32.83895874 43.90931702 C32.83796173 42.90928146 32.83696472 41.90924591 32.8359375 40.87890625 C32.85622396 38.76496864 32.87707469 36.65103638 32.8984375 34.53710938 C32.92106102 31.20137006 32.93751604 27.86584187 32.94335938 24.5300293 C32.95286504 21.31259929 32.98661792 18.09612324 33.0234375 14.87890625 C33.01839203 13.88089493 33.01334656 12.88288361 33.00814819 11.85462952 C33.10666516 4.93940409 33.10666516 4.93940409 35.47119141 1.6875 C37.71371515 0.2130786 38.89806218 -0.25520398 41.5625 -0.25 C42.5525 -0.28287109 42.5525 -0.28287109 43.5625 -0.31640625 C46.86441872 0.72189241 47.76929708 2.36785271 49.5625 5.3125 C50.14922112 8.88168391 50.09918973 12.40932786 50.05859375 16.01953125 C50.06004898 17.05889328 50.06150421 18.09825531 50.06300354 19.16911316 C50.06134574 21.36545618 50.04979782 23.56181096 50.02905273 25.75805664 C50.00019083 29.10288464 50.00842895 32.44611755 50.02148438 35.79101562 C50.01524361 37.92969514 50.00685004 40.06836968 49.99609375 42.20703125 C49.99902939 43.1999971 50.00196503 44.19296295 50.00498962 45.21601868 C49.89059745 53.73176462 47.99825933 60.51780084 42.5625 67.3125 C35.3475267 73.94349373 27.03987801 75.88643165 17.41796875 75.59375 C9.16737508 74.78110603 2.72541254 70.61241979 -2.98046875 64.71875 C-8.73331983 57.56564485 -8.74497854 48.12611117 -8.703125 39.32421875 C-8.70503845 38.41799271 -8.7069519 37.51176666 -8.70892334 36.57807922 C-8.71027313 34.68152587 -8.70666188 32.78496288 -8.69824219 30.88842773 C-8.6874623 27.98986195 -8.69821062 25.09190703 -8.7109375 22.19335938 C-8.70961691 20.34114447 -8.70705661 18.48892995 -8.703125 16.63671875 C-8.70717346 15.77519699 -8.71122192 14.91367523 -8.71539307 14.02604675 C-8.66218304 7.20449566 -8.28590784 0.04081728 0 0 Z " fill="#5FB7FF" transform="translate(8.4375,-0.3125)"/>
<path d="M0 0 C3.93671963 1.08969627 5.82179683 4.35632382 8.00390625 7.5546875 C8.79323914 8.67520664 9.5836906 9.79493829 10.375 10.9140625 C12.61732536 14.10595516 14.81778172 17.32408125 17.00390625 20.5546875 C18.58972603 18.51491167 20.17259533 16.47295442 21.75390625 14.4296875 C22.4190625 13.57503906 22.4190625 13.57503906 23.09765625 12.703125 C25.24511166 9.92406506 27.30416435 7.14065058 29.20703125 4.1875 C31.00390625 1.5546875 31.00390625 1.5546875 33.00390625 0.5546875 C40.14526751 -0.13641198 40.14526751 -0.13641198 43.56640625 2.6171875 C45.3745742 6.3121394 45.28743055 8.75025581 44.00390625 12.5546875 C41.94144473 16.1368575 39.52616562 19.42431584 37.06640625 22.7421875 C35.78429106 24.50493611 34.50425885 26.2692021 33.2265625 28.03515625 C32.65687744 28.80754639 32.08719238 29.57993652 31.50024414 30.37573242 C30.12439792 32.3792285 29.02701576 34.35426702 28.00390625 36.5546875 C28.69355469 37.47507813 29.38320313 38.39546875 30.09375 39.34375 C33.10431995 43.38510122 36.06574336 47.46044824 39.00390625 51.5546875 C39.4726416 52.2053418 39.94137695 52.85599609 40.42431641 53.52636719 C41.72496158 55.35376659 42.99375497 57.19920319 44.25390625 59.0546875 C45.0015625 60.1375 45.74921875 61.2203125 46.51953125 62.3359375 C48.33765696 66.27839957 48.08397117 68.4009799 47.00390625 72.5546875 C44.74302622 75.25035216 43.14363563 75.52568706 39.69140625 76.2421875 C32.15944624 74.83792377 28.78587816 67.27586106 24.69042969 61.31835938 C23.69742127 59.86022193 22.7122629 58.39670502 21.73535156 56.92773438 C21.2812793 56.24904297 20.82720703 55.57035156 20.359375 54.87109375 C19.95356201 54.25693604 19.54774902 53.64277832 19.12963867 53.01000977 C18.05016175 51.39704536 18.05016175 51.39704536 16.00390625 50.5546875 C15.73441162 51.28985596 15.46491699 52.02502441 15.18725586 52.7824707 C14.043583 55.46173732 12.76787072 57.55301182 11.0703125 59.91015625 C10.50376953 60.69712891 9.93722656 61.48410156 9.35351562 62.29492188 C8.76376953 63.10251953 8.17402344 63.91011719 7.56640625 64.7421875 C6.98052734 65.56138672 6.39464844 66.38058594 5.79101562 67.22460938 C1.38554044 73.3002647 1.38554044 73.3002647 -1.99609375 75.5546875 C-5.86948129 75.97723887 -8.11207984 76.12136308 -11.43359375 73.9921875 C-13.73484616 70.40223374 -13.73669138 68.7962921 -12.99609375 64.5546875 C-10.31331238 59.19794969 -6.67154391 54.45347342 -3.1171875 49.65234375 C-2.62259033 48.98396484 -2.12799316 48.31558594 -1.6184082 47.62695312 C-0.63412418 46.30580099 0.35803366 44.99047209 1.35864258 43.68164062 C4.6051784 39.50918643 4.6051784 39.50918643 6.00390625 34.5546875 C5.11238398 32.5513782 5.11238398 32.5513782 3.6171875 30.65625 C3.09060547 29.92921875 2.56402344 29.2021875 2.02148438 28.453125 C1.45880859 27.70289062 0.89613281 26.95265625 0.31640625 26.1796875 C-0.77141199 24.69313161 -1.85866231 23.20615994 -2.9453125 21.71875 C-3.46722168 21.00799316 -3.98913086 20.29723633 -4.52685547 19.56494141 C-10.92327697 10.81317426 -10.92327697 10.81317426 -9.99609375 4.5546875 C-7.54261075 0.56777763 -4.66521345 -0.29211281 0 0 Z " fill="#5FB7FF" transform="translate(244.99609375,-0.5546875)"/>
<path d="M0 0 C2.5625 2.0625 2.5625 2.0625 4 5 C3.63019445 10.30917767 2.08486242 14.83369759 0.0078125 19.6796875 C-0.44517715 20.76319489 -0.44517715 20.76319489 -0.90731812 21.86859131 C-1.88809279 24.207725 -2.88092263 26.54149205 -3.875 28.875 C-4.55605251 30.48730342 -5.23671386 32.09977212 -5.91699219 33.71240234 C-7.614543 37.72829752 -9.32404626 41.73897373 -11.03820801 45.74780273 C-11.94122884 47.86237747 -12.84011412 49.97864933 -13.73730469 52.09570312 C-15.2282581 55.61123139 -16.73640844 59.11915077 -18.25 62.625 C-18.69069824 63.65995605 -19.13139648 64.69491211 -19.58544922 65.76123047 C-19.99553223 66.69854004 -20.40561523 67.63584961 -20.828125 68.6015625 C-21.1777832 69.40932129 -21.52744141 70.21708008 -21.88769531 71.04931641 C-23 73 -23 73 -26 75 C-29.83693587 75.41857482 -32.11203064 75.54644269 -35.4375 73.5 C-37.59963146 70.04058967 -37.46307425 66.93588948 -37 63 C-36.12700455 59.94581666 -34.89389701 57.10333077 -33.59765625 54.20703125 C-33.24429703 53.3862056 -32.89093781 52.56537994 -32.52687073 51.71968079 C-31.38580655 49.0777459 -30.22473582 46.4451806 -29.0625 43.8125 C-28.27591723 42.00494395 -27.49060019 40.19683657 -26.70654297 38.38818359 C-25.17121776 34.85021857 -23.62888715 31.31543815 -22.08154297 27.78271484 C-20.33889747 23.7939186 -18.64127498 19.78983931 -16.97265625 15.76953125 C-16.56329834 14.78686279 -16.15394043 13.80419434 -15.73217773 12.79174805 C-15.01638544 11.06769088 -14.30588839 9.34142147 -13.60180664 7.61254883 C-10.77472508 0.89040982 -7.37352747 -1.42140289 0 0 Z " fill="#5FB7FF" transform="translate(146,0)"/>
<path d="M0 0 C0.71431686 -0.00861557 1.42863373 -0.01723114 2.16459656 -0.02610779 C4.52164128 -0.04877715 6.87749786 -0.04202753 9.23461914 -0.03295898 C10.87602593 -0.03819451 12.5174297 -0.04447073 14.15882874 -0.05174255 C17.59789187 -0.06214873 21.0365413 -0.05758295 24.47558594 -0.04296875 C28.8787616 -0.02578751 33.28063153 -0.04926557 37.68366146 -0.08445835 C41.07325355 -0.10644037 44.46253365 -0.10498892 47.85217476 -0.09669304 C49.47526035 -0.09587381 51.09836892 -0.10273193 52.72138786 -0.11746407 C54.9934551 -0.13492477 57.26318233 -0.12035889 59.53515625 -0.09765625 C61.47230751 -0.09621361 61.47230751 -0.09621361 63.44859314 -0.09474182 C67.70601781 0.69565974 69.21272529 2.1475702 71.83227539 5.53344727 C71.95727539 8.59594727 71.95727539 8.59594727 70.83227539 11.53344727 C68.08099048 14.31519102 66.42937447 15.4403534 62.53125 16.04811096 C60.65191772 16.05740883 60.65191772 16.05740883 58.73461914 16.06689453 C58.03966339 16.0755101 57.34470764 16.08412567 56.62869263 16.09300232 C54.34200306 16.11562032 52.0565431 16.10893255 49.76977539 16.09985352 C48.17463824 16.1050907 46.57950419 16.11136752 44.984375 16.11863708 C41.64544067 16.12903328 38.30693275 16.12449093 34.96801758 16.10986328 C30.69377204 16.09266863 26.42086995 16.11618165 22.14677429 16.15135288 C18.85411713 16.17333492 15.56178112 16.17188373 12.26907349 16.16358757 C10.69343593 16.16276862 9.11777466 16.1696213 7.54220581 16.1843586 C5.33727905 16.20182313 3.13476236 16.18725184 0.92993164 16.16455078 C-0.32295654 16.16358902 -1.57584473 16.16262726 -2.86669922 16.16163635 C-7.06513349 15.36266928 -8.55330781 13.84836953 -11.16772461 10.53344727 C-11.73022461 7.47094727 -11.73022461 7.47094727 -11.16772461 4.53344727 C-7.93637772 0.1557189 -5.27983976 0.0253576 0 0 Z " fill="#F8FEFC" transform="translate(57.167724609375,445.466552734375)"/>
<path d="M0 0 C0.66 -0.02191406 1.32 -0.04382812 2 -0.06640625 C5.14484803 0.92250104 6.20133684 2.86557782 8 5.5625 C8.50120544 8.55981445 8.50120544 8.55981445 8.50170898 11.92578125 C8.51108994 13.19059326 8.52047089 14.45540527 8.53013611 15.75854492 C8.51965742 17.13070352 8.50828835 18.50285557 8.49609375 19.875 C8.49624884 21.29077224 8.49773943 22.7065449 8.50050354 24.12231445 C8.50188567 27.08466437 8.48936163 30.04652903 8.46655273 33.00878906 C8.43816796 36.79851228 8.44090757 40.58742967 8.45364285 44.37721252 C8.46061088 47.29926387 8.45279805 50.22113024 8.44038582 53.14315796 C8.4358822 54.54014374 8.43552498 55.93714944 8.43945122 57.33413696 C8.44237412 59.28919765 8.42365811 61.24425418 8.40405273 63.19921875 C8.39864975 64.30998779 8.39324677 65.42075684 8.38768005 66.56518555 C7.95077034 69.9431148 7.01296302 71.83853619 5 74.5625 C1.90826248 76.10836876 -0.59429552 75.85609521 -4 75.5625 C-6.94658068 73.39948848 -7.89194084 72.20023344 -8.50793457 68.56481934 C-8.51111694 67.3955188 -8.51429932 66.22621826 -8.51757812 65.02148438 C-8.5245874 64.37383621 -8.53159668 63.72618805 -8.53881836 63.05891418 C-8.55638226 60.92425288 -8.5447832 58.79092409 -8.53125 56.65625 C-8.53394542 55.16939032 -8.53782827 53.68253236 -8.54284668 52.19567871 C-8.54873948 49.08194164 -8.54018647 45.96866406 -8.52148438 42.85498047 C-8.49869415 38.86658912 -8.51181851 34.87927441 -8.53577423 30.89092255 C-8.55023858 27.82134917 -8.54562348 24.75203045 -8.53526306 21.68244934 C-8.5325975 20.21206026 -8.53585961 18.74164796 -8.54518127 17.27128601 C-8.55535835 15.21474099 -8.53983402 13.15993157 -8.51757812 11.10351562 C-8.51439575 9.93421509 -8.51121338 8.76491455 -8.50793457 7.56018066 C-7.6938857 2.7559033 -4.94752882 -0.00966314 0 0 Z " fill="#60B6FF" transform="translate(82,-0.5625)"/>
<path d="M0 0 C1.78227493 -0.01925285 1.78227493 -0.01925285 3.60055542 -0.03889465 C4.89011139 -0.04628159 6.17966736 -0.05366852 7.50830078 -0.0612793 C8.82774689 -0.06935104 10.14719299 -0.07742279 11.50662231 -0.08573914 C14.30259066 -0.10076493 17.0985336 -0.11060385 19.89453125 -0.11816406 C23.4748431 -0.12923259 27.05453411 -0.16363772 30.63462639 -0.20333576 C33.38844964 -0.22948317 36.14212447 -0.2378541 38.89606094 -0.24144554 C40.85705662 -0.24868244 42.8179509 -0.27512844 44.77877808 -0.30183411 C46.57050949 -0.29744576 46.57050949 -0.29744576 48.3984375 -0.29296875 C49.4494162 -0.29883499 50.5003949 -0.30470123 51.58322144 -0.31074524 C55.01931082 0.2997115 56.17042863 1.4963718 58.32861328 4.17700195 C59.52112909 6.81757268 59.39731143 7.92094521 58.64111328 10.73950195 C57.1394897 13.52823145 56.02789332 14.54744377 53.32861328 16.17700195 C50.67933655 16.56468201 50.67933655 16.56468201 47.62963867 16.58105469 C45.91249413 16.60008095 45.91249413 16.60008095 44.16065979 16.61949158 C42.928311 16.61655594 41.69596222 16.6136203 40.42626953 16.6105957 C39.15641708 16.61583755 37.88656464 16.62107941 36.57823181 16.6264801 C33.89225287 16.63290488 31.20712307 16.63299611 28.52124023 16.62304688 C25.08670695 16.6115615 21.6532025 16.63176303 18.21880436 16.66096401 C14.93378775 16.68376933 11.64884675 16.67685752 8.36376953 16.6730957 C6.5182827 16.68994667 6.5182827 16.68994667 4.63551331 16.70713806 C3.48759811 16.69775711 2.33968292 16.68837616 1.15698242 16.67871094 C-0.35381142 16.67846169 -0.35381142 16.67846169 -1.89512634 16.6782074 C-5.42770835 16.04046126 -7.11036378 14.64348625 -9.67138672 12.17700195 C-11.13435149 8.70246061 -10.78413791 7.45619537 -9.35888672 3.92700195 C-6.74082881 -0.33946278 -4.75974276 0.04465071 0 0 Z " fill="#5FB7FF" transform="translate(452.67138671875,58.822998046875)"/>
<path d="M0 0 C1.14483856 -0.0127597 2.28967712 -0.02551941 3.46920776 -0.03866577 C5.32547287 -0.04200424 5.32547287 -0.04200424 7.21923828 -0.04541016 C9.12613937 -0.05539536 9.12613937 -0.05539536 11.07156372 -0.06558228 C13.76334614 -0.0757172 16.4547248 -0.08126322 19.14648438 -0.08007812 C22.58884624 -0.07987505 26.03038144 -0.10716384 29.47254753 -0.14162254 C32.76307998 -0.1692652 36.05360548 -0.16804154 39.34423828 -0.17041016 C41.19443069 -0.19196671 41.19443069 -0.19196671 43.08200073 -0.21395874 C44.23314362 -0.20780548 45.3842865 -0.20165222 46.5703125 -0.1953125 C47.5805246 -0.19816254 48.59073669 -0.20101257 49.63156128 -0.20394897 C53.1727089 0.42523545 54.84996787 1.81834194 57.41455078 4.29052734 C58.87751556 7.76506868 58.52730197 9.01133393 57.10205078 12.54052734 C55.41455078 15.29052734 55.41455078 15.29052734 53.41455078 16.29052734 C51.52645934 16.40205885 49.63446356 16.44978719 47.74316406 16.4675293 C46.55498077 16.48036453 45.36679749 16.49319977 44.14260864 16.50642395 C42.85305267 16.51381088 41.5634967 16.52119781 40.23486328 16.52880859 C38.91541718 16.53688034 37.59597107 16.54495209 36.23654175 16.55326843 C33.4405734 16.56829422 30.64463047 16.57813315 27.84863281 16.58569336 C24.26832096 16.59676188 20.68862995 16.63116701 17.10853767 16.67086506 C14.35471442 16.69701247 11.60103959 16.7053834 8.84710312 16.70897484 C6.88610745 16.71621174 4.92521316 16.74265774 2.96438599 16.7693634 C1.76989838 16.76643784 0.57541077 16.76351227 -0.65527344 16.76049805 C-1.70625214 16.76636429 -2.75723083 16.77223053 -3.84005737 16.77827454 C-7.28576149 16.16610964 -8.43557131 14.99446204 -10.58544922 12.29052734 C-11.52294922 9.85302734 -11.52294922 9.85302734 -11.58544922 7.29052734 C-8.94312956 1.60954009 -6.1275992 0.04631506 0 0 Z " fill="#5FB7FF" transform="translate(453.58544921875,28.70947265625)"/>
<path d="M0 0 C1.84717873 -0.01429802 1.84717873 -0.01429802 3.73167419 -0.02888489 C5.08161447 -0.02862346 6.43155475 -0.02768644 7.78149414 -0.02612305 C9.16150543 -0.03000879 10.54151552 -0.0343432 11.92152405 -0.03910828 C14.81588617 -0.04657595 17.71012633 -0.04627544 20.60449219 -0.04101562 C24.31485277 -0.03522184 28.02471402 -0.05214649 31.73499203 -0.0753603 C34.58572817 -0.09008829 37.43634383 -0.09097062 40.28711128 -0.08785057 C41.65506542 -0.08836432 43.02302621 -0.09361206 44.39094353 -0.10366249 C46.30355909 -0.11598922 48.2162753 -0.1073058 50.12890625 -0.09765625 C51.21763535 -0.09828568 52.30636444 -0.0989151 53.42808533 -0.0995636 C56.12915039 0.2746582 56.12915039 0.2746582 57.9533844 1.64949036 C59.57150579 3.88609091 59.93265637 5.52374198 60.12915039 8.2746582 C59.19298789 11.37119572 58.42491717 12.97889143 56.12915039 15.2746582 C53.55506897 15.53535461 53.55506897 15.53535461 50.25830078 15.54931641 C49.0268483 15.55884842 47.79539581 15.56838043 46.52662659 15.57820129 C45.17668632 15.57793987 43.82674603 15.57700285 42.47680664 15.57543945 C41.09679535 15.57932519 39.71678526 15.58365961 38.33677673 15.58842468 C35.44241461 15.59589236 32.54817445 15.59559184 29.65380859 15.59033203 C25.94344801 15.58453825 22.23358676 15.6014629 18.52330875 15.6246767 C15.67257261 15.63940469 12.82195695 15.64028703 9.9711895 15.63716698 C8.60323536 15.63768072 7.23527457 15.64292847 5.86735725 15.6529789 C3.95474169 15.66530562 2.04202548 15.6566222 0.12939453 15.64697266 C-1.50369911 15.64791679 -1.50369911 15.64791679 -3.16978455 15.64888 C-5.87084961 15.2746582 -5.87084961 15.2746582 -7.69508362 13.89982605 C-9.31320501 11.6632255 -9.67435559 10.02557443 -9.87084961 7.2746582 C-8.04573336 1.23773522 -6.18779057 0.02620525 0 0 Z " fill="#5FB7FF" transform="translate(451.870849609375,-0.274658203125)"/>
<path d="M0 0 C1.00208496 -0.00619858 2.00416992 -0.01239716 3.03662109 -0.01878357 C5.15135732 -0.02587482 7.26614945 -0.02271991 9.38085938 -0.01000977 C12.61432657 0.00386047 15.8449019 -0.03023174 19.078125 -0.06835938 C21.13541737 -0.06931056 23.19271337 -0.06745176 25.25 -0.0625 C26.69705322 -0.08238731 26.69705322 -0.08238731 28.17333984 -0.10267639 C32.80332514 -0.03851711 34.94761912 0.05555525 38.73828125 2.91430664 C40.625 5.56640625 40.625 5.56640625 41.1875 8.62890625 C40.45942281 12.43108711 39.80796227 13.33361716 36.625 15.56640625 C33.04589367 16.17654917 29.49838209 16.12651123 25.875 16.09765625 C24.29960449 16.10339661 24.29960449 16.10339661 22.69238281 16.10925293 C20.47329753 16.11197321 18.25418026 16.10460402 16.03515625 16.08789062 C12.63729405 16.0664837 9.24154639 16.0876895 5.84375 16.11328125 C3.68749533 16.110638 1.53124198 16.10551307 -0.625 16.09765625 C-1.64174805 16.10575317 -2.65849609 16.1138501 -3.70605469 16.12219238 C-10.70260268 16.02911522 -10.70260268 16.02911522 -14.01171875 13.75195312 C-16.04860539 10.48651452 -15.97926775 8.3262945 -15.375 4.56640625 C-11.01923491 -0.4741744 -6.19215772 -0.03183604 0 0 Z " fill="#FFFDF9" transform="translate(95.375,204.43359375)"/>
<path d="M0 0 C0.97988892 -0.00004028 1.95977783 -0.00008057 2.96936035 -0.00012207 C5.03709339 0.00522942 7.10482616 0.0227962 9.17236328 0.05175781 C12.33299075 0.09360754 15.49148593 0.09282497 18.65234375 0.0859375 C20.66407727 0.09643071 22.67579983 0.10936952 24.6875 0.125 C25.63032837 0.12520142 26.57315674 0.12540283 27.54455566 0.12561035 C32.42077201 0.21334005 35.92386292 0.34902078 39.84375 3.59375 C41.26416821 6.43458641 41.15827272 8.44852278 40.84375 11.59375 C39.49609375 13.75585938 39.49609375 13.75585938 36.84375 15.59375 C33.26427583 16.20248784 29.71730709 16.15385638 26.09375 16.125 C24.51835449 16.13074036 24.51835449 16.13074036 22.91113281 16.13659668 C20.69204753 16.13931696 18.47293026 16.13194777 16.25390625 16.11523438 C12.85604405 16.09382745 9.46029639 16.11503325 6.0625 16.140625 C3.90624533 16.13798175 1.74999198 16.13285682 -0.40625 16.125 C-1.42299805 16.13309692 -2.43974609 16.14119385 -3.48730469 16.14953613 C-10.49688026 16.05628566 -10.49688026 16.05628566 -13.79296875 13.74414062 C-15.6996 10.73668933 -15.79855057 9.09071976 -15.15625 5.59375 C-10.90460588 -0.34456897 -6.74132116 -0.11722784 0 0 Z " fill="#FFFDF9" transform="translate(95.15625,285.40625)"/>
<path d="M0 0 C1.02569595 -0.0038269 2.05139191 -0.00765381 3.10816956 -0.01159668 C5.27598045 -0.01431697 7.4438241 -0.00694768 9.61157227 0.00976562 C12.92603999 0.03115086 16.23833459 0.00997833 19.55273438 -0.015625 C21.66016103 -0.01298132 23.76758633 -0.0078555 25.875 0 C26.86471298 -0.00809692 27.85442596 -0.01619385 28.87413025 -0.02453613 C33.23336694 0.03471237 35.81811318 0.12537793 39.62915039 2.38085938 C41.50390625 4.53125 41.50390625 4.53125 42.12890625 7.46875 C41.26464396 11.70363522 39.96296085 12.93256802 36.50390625 15.53125 C32.96024266 16.26233054 29.482791 16.20848627 25.875 16.16015625 C24.84834732 16.16256821 23.82169464 16.16498016 22.76393127 16.16746521 C20.59787119 16.16648742 18.43178591 16.15311011 16.26586914 16.12817383 C12.94917064 16.0938304 9.63513153 16.10752804 6.31835938 16.12695312 C4.21222824 16.12005559 2.10610397 16.11038405 0 16.09765625 C-0.99173721 16.10261612 -1.98347443 16.10757599 -3.00526428 16.11268616 C-9.82478882 15.99587468 -9.82478882 15.99587468 -13.12084961 13.71459961 C-15.15634507 10.48302923 -15.02950866 8.26515434 -14.49609375 4.53125 C-11.05945326 -0.93028128 -5.79590525 -0.04732 0 0 Z " fill="#FFFEFD" transform="translate(94.49609375,245.46875)"/>
<path d="M0 0 C3.1875 2.0625 3.1875 2.0625 5 5 C5.0625 8.625 5.0625 8.625 4 12 C1.09803078 14.78563193 -1.01622802 15.43142718 -5 15.4375 C-8.29535735 15.32085018 -9.74885026 15.14949389 -12.625 13.4375 C-14.54211763 10.03897329 -14.54861638 7.84031465 -14 4 C-10.99333462 -1.32999771 -5.46048256 -1.00402421 0 0 Z " fill="#FFFDFA" transform="translate(53,246)"/>
<path d="M0 0 C3.4203866 1.17013226 3.91540482 1.87310723 6 5 C5.67554947 11.05640994 5.67554947 11.05640994 3.7890625 13.69140625 C0.13536936 16.36386739 -4.7008919 15.56634957 -9 15 C-11.6875 13.4375 -11.6875 13.4375 -13 11 C-13.5625 7.5 -13.5625 7.5 -13 4 C-9.16154426 -0.67811794 -5.64477487 -0.53759761 0 0 Z " fill="#FFFDF9" transform="translate(52,205)"/>
<path d="M0 0 C1.04027344 -0.01933594 2.08054687 -0.03867187 3.15234375 -0.05859375 C6.73171357 0.5515807 7.9276458 1.53946121 10.0625 4.4375 C10.00288199 7.83572666 9.85945797 10.29861287 7.87890625 13.12890625 C5.26581684 15.01145454 3.24934138 14.83593266 0.0625 14.8125 C-0.989375 14.82023437 -2.04125 14.82796875 -3.125 14.8359375 C-5.9375 14.4375 -5.9375 14.4375 -7.7890625 13.1640625 C-9.16679923 11.09277123 -9.34060699 9.91091489 -9.3125 7.4375 C-9.32023437 6.756875 -9.32796875 6.07625 -9.3359375 5.375 C-8.27270899 0.20479076 -4.694469 0.0058028 0 0 Z " fill="#FFFEFB" transform="translate(47.9375,286.5625)"/>
</svg>
